<?xml version="1.0" standalone="no"?>
<!DOCTYPE svg PUBLIC "-//W3C//DTD SVG 20010904//EN"
 "http://www.w3.org/TR/2001/REC-SVG-20010904/DTD/svg10.dtd">
<svg version="1.0" xmlns="http://www.w3.org/2000/svg"
 width="73.000000pt" height="59.000000pt" viewBox="0 0 73.000000 59.000000"
 preserveAspectRatio="xMidYMid meet">

<g transform="translate(0.000000,59.000000) scale(0.100000,-0.100000)"
fill="#9334ea" stroke="none">
<path d="M470 415 c0 -20 -5 -25 -25 -25 -14 0 -25 -4 -25 -10 0 -5 11 -10 25
-10 20 0 25 -5 25 -25 0 -16 6 -25 15 -25 9 0 15 9 15 25 0 20 5 25 25 25 14
0 25 5 25 10 0 6 -11 10 -25 10 -20 0 -25 5 -25 25 0 16 -6 25 -15 25 -9 0
-15 -9 -15 -25z"/>
<path d="M217 393 c-4 -3 -7 -14 -7 -23 0 -10 -13 -23 -30 -30 -64 -26 -77
-118 -23 -160 22 -17 40 -20 135 -20 l110 0 -7 40 c-5 27 -3 46 6 56 10 13 10
20 0 36 -9 15 -9 23 -1 33 9 11 9 22 -1 45 -14 30 -14 30 -95 30 -44 0 -84 -3
-87 -7z m158 -13 c4 -6 -23 -10 -75 -10 -52 0 -79 4 -75 10 3 6 37 10 75 10
38 0 72 -4 75 -10z m15 -40 c0 -13 -110 -13 -130 0 -10 7 7 10 58 10 41 0 72
-4 72 -10z m-112 -36 c12 -14 22 -38 22 -55 0 -27 3 -29 35 -29 19 0 35 -4 35
-10 0 -13 -57 -13 -65 0 -7 12 -25 4 -25 -11 0 -5 23 -9 50 -9 28 0 50 -4 50
-10 0 -14 -97 -13 -102 1 -3 9 -9 9 -25 0 -33 -17 -59 -13 -87 12 -42 37 -36
105 12 132 34 19 71 11 100 -21z m92 6 c0 -5 -15 -10 -34 -10 -19 0 -38 5 -41
10 -4 6 10 10 34 10 23 0 41 -4 41 -10z m20 -30 c0 -5 -18 -10 -40 -10 -22 0
-40 5 -40 10 0 6 18 10 40 10 22 0 40 -4 40 -10z m-10 -30 c0 -5 -16 -10 -36
-10 -21 0 -33 4 -29 10 3 6 19 10 36 10 16 0 29 -4 29 -10z"/>
<path d="M167 302 c-26 -29 -22 -77 9 -101 35 -27 59 -26 89 4 30 29 32 68 5
95 -26 26 -81 26 -103 2z m78 2 c24 -10 37 -51 24 -75 -28 -53 -108 -34 -109
25 0 41 43 66 85 50z"/>
<path d="M207 258 c8 -46 13 -48 13 -5 0 21 -4 37 -10 37 -5 0 -7 -14 -3 -32z"/>
<path d="M430 255 c0 -12 13 -15 55 -15 42 0 55 3 55 15 0 12 -13 15 -55 15
-42 0 -55 -3 -55 -15z"/>
</g>
</svg>
