<?xml version="1.0" standalone="no"?>
<!DOCTYPE svg PUBLIC "-//W3C//DTD SVG 20010904//EN"
 "http://www.w3.org/TR/2001/REC-SVG-20010904/DTD/svg10.dtd">
<svg version="1.0" xmlns="http://www.w3.org/2000/svg"
 width="273.000000pt" height="273.000000pt" viewBox="0 0 273.000000 273.000000"
 preserveAspectRatio="xMidYMid meet">

<g transform="translate(0.000000,273.000000) scale(0.100000,-0.100000)"
fill="#000000" stroke="none">
<path d="M1240 2709 c-404 -39 -776 -259 -995 -589 -367 -552 -286 -1276 192
-1731 184 -174 407 -290 666 -346 117 -26 409 -25 527 1 176 38 376 125 520
227 96 68 241 213 309 309 102 144 189 344 227 520 26 118 27 410 1 527 -105
486 -438 863 -897 1017 -173 58 -378 82 -550 65z m267 -109 c488 -61 890 -398
1041 -870 40 -126 55 -229 54 -375 -2 -667 -560 -1225 -1227 -1227 -146 -1
-249 14 -375 54 -477 152 -810 554 -871 1052 -45 361 103 763 375 1024 269
257 647 386 1003 342z"/>
<path d="M998 2125 c-98 -51 -248 -109 -410 -159 l-143 -44 -3 -69 c-4 -84 12
-222 43 -368 76 -360 252 -622 502 -747 l83 -41 82 41 c267 132 448 418 518
818 28 159 38 362 19 368 -8 2 -75 23 -149 47 -153 48 -315 111 -407 157 -34
18 -64 32 -65 32 -2 -1 -33 -16 -70 -35z m124 -51 c78 -40 270 -113 403 -155
l120 -37 -3 -89 c-6 -200 -67 -464 -142 -614 -86 -169 -220 -316 -353 -384
l-77 -40 -77 39 c-181 93 -334 294 -417 547 -39 120 -75 324 -78 452 l-3 89
120 37 c126 39 356 128 415 161 19 11 36 19 38 20 1 0 26 -12 54 -26z"/>
<path d="M970 1675 l0 -115 -115 0 -115 0 0 -100 0 -99 113 -3 112 -3 3 -112
3 -113 99 0 99 0 3 113 3 112 113 3 112 3 0 99 0 100 -115 0 -115 0 0 115 0
115 -100 0 -100 0 0 -115z"/>
<path d="M2186 1251 c-29 -4 -51 -12 -54 -20 -3 -10 4 -12 32 -9 20 2 36 1 36
-4 0 -13 -126 -128 -197 -180 -85 -62 -246 -141 -337 -166 -39 -10 -72 -24
-74 -31 -13 -40 265 69 392 154 70 46 203 160 216 185 18 33 40 25 40 -15 0
-24 5 -35 15 -35 11 0 13 11 9 53 -7 63 -11 78 -21 75 -4 0 -30 -4 -57 -7z"/>
<path d="M2120 870 l0 -170 65 0 65 0 0 170 0 170 -65 0 -65 0 0 -170z"/>
<path d="M1942 823 l3 -118 65 0 65 0 3 118 3 117 -71 0 -71 0 3 -117z"/>
<path d="M1770 770 l0 -70 65 0 65 0 0 70 0 70 -65 0 -65 0 0 -70z"/>
<path d="M1600 720 c0 -18 7 -20 65 -20 58 0 65 2 65 20 0 18 -7 20 -65 20
-58 0 -65 -2 -65 -20z"/>
</g>
</svg>
