<?xml version="1.0" standalone="no"?>
<!DOCTYPE svg PUBLIC "-//W3C//DTD SVG 20010904//EN"
 "http://www.w3.org/TR/2001/REC-SVG-20010904/DTD/svg10.dtd">
<svg version="1.0" xmlns="http://www.w3.org/2000/svg"
 width="67.000000pt" height="45.000000pt" viewBox="0 0 67.000000 45.000000"
 preserveAspectRatio="xMidYMid meet">

<g transform="translate(0.000000,45.000000) scale(0.100000,-0.100000)"
fill="currentColor" stroke="none">
<path d="M298 423 l-128 -4 0 -27 c0 -16 5 -33 12 -40 9 -9 5 -12 -19 -12 -35
0 -87 -32 -117 -73 -32 -43 -28 -124 8 -172 45 -59 73 -66 259 -63 l162 3 0
33 c0 18 5 32 12 32 8 0 13 22 15 63 l3 62 63 3 62 3 0 34 0 34 -62 3 -63 3
-3 63 -3 62 -37 -2 c-20 -1 -94 -4 -164 -5z m122 -33 c0 -19 -7 -20 -115 -20
-108 0 -115 1 -115 20 0 19 7 20 115 20 108 0 115 -1 115 -20z m0 -55 c0 -21
-154 -21 -190 0 -23 13 -16 14 83 15 89 0 107 -3 107 -15z m-167 -32 c37 -19
71 -93 64 -138 -11 -69 -67 -115 -139 -115 -128 0 -186 156 -90 243 41 38 104
41 165 10z m167 -83 c0 -5 -20 -10 -45 -10 -25 0 -45 5 -45 10 0 6 20 10 45
10 25 0 45 -4 45 -10z m0 -50 c0 -17 -7 -20 -38 -20 -43 0 -53 6 -45 26 3 9
20 14 44 14 32 0 39 -3 39 -20z m0 -50 c0 -18 -7 -20 -55 -20 -53 0 -55 1 -45
20 8 15 21 20 55 20 38 0 45 -3 45 -20z m40 -55 c0 -12 -17 -15 -96 -15 -85 0
-95 2 -84 15 18 22 180 22 180 0z"/>
<path d="M119 285 c-28 -15 -59 -69 -59 -103 0 -26 40 -84 70 -100 34 -18 97
-8 126 19 99 93 -18 249 -137 184z m120 -24 c75 -53 34 -171 -59 -171 -87 0
-130 93 -75 159 37 44 84 48 134 12z"/>
<path d="M162 238 c-15 -15 -16 -32 -2 -23 6 4 10 -10 10 -34 0 -23 5 -41 10
-41 12 0 14 97 2 104 -5 3 -14 0 -20 -6z"/>
</g>
</svg>
