<?xml version="1.0" standalone="no"?>
<!DOCTYPE svg PUBLIC "-//W3C//DTD SVG 20010904//EN"
 "http://www.w3.org/TR/2001/REC-SVG-20010904/DTD/svg10.dtd">
<svg version="1.0" xmlns="http://www.w3.org/2000/svg"
 width="73.000000pt" height="59.000000pt" viewBox="0 0 73.000000 59.000000"
 preserveAspectRatio="xMidYMid meet">

<g transform="translate(0.000000,59.000000) scale(0.100000,-0.100000)"
fill="#9334ea" stroke="none">
<path d="M289 506 c-60 -21 -96 -54 -125 -111 -50 -104 -19 -218 77 -282 33
-22 56 -28 108 -31 57 -2 73 1 116 25 125 70 150 233 53 339 -60 65 -150 89
-229 60z m120 -16 c18 -5 45 -17 58 -26 l25 -16 -23 -24 c-20 -21 -31 -24 -96
-24 -65 0 -73 -2 -73 -19 0 -11 -9 -23 -20 -26 -49 -16 -76 -83 -50 -125 9
-14 -13 -50 -30 -50 -15 0 -40 74 -40 117 0 133 123 229 249 193z m142 -140
c25 -84 -20 -189 -100 -230 -71 -36 -186 -19 -229 33 -20 23 19 52 55 40 15
-4 63 -7 106 -5 73 3 78 5 76 25 -2 12 1 37 5 55 5 21 4 38 -4 47 -10 12 -10
15 0 15 8 0 10 9 7 28 -4 19 1 34 16 50 l22 23 17 -21 c10 -12 23 -39 29 -60z
m-136 30 c-3 -5 -28 -10 -56 -10 -27 0 -49 5 -49 10 0 6 25 10 56 10 34 0 53
-4 49 -10z m-33 -32 c-8 -8 -17 -8 -34 0 -22 10 -21 11 12 11 26 1 31 -2 22
-11z m73 2 c-3 -5 -13 -10 -21 -10 -8 0 -14 5 -14 10 0 6 9 10 21 10 11 0 17
-4 14 -10z m-170 -20 c-27 -10 -42 -29 -48 -60 -4 -25 -4 -25 -6 3 -1 31 30
67 57 66 14 0 14 -2 -3 -9z m59 1 c4 -5 -3 -7 -14 -4 -23 6 -26 13 -6 13 8 0
17 -4 20 -9z m96 -11 c0 -5 -11 -10 -25 -10 -14 0 -25 5 -25 10 0 6 11 10 25
10 14 0 25 -4 25 -10z m-105 -9 c3 -5 0 -13 -7 -17 -6 -4 -14 -2 -16 4 -5 17
-22 4 -22 -17 0 -27 -26 -46 -34 -25 -9 24 -8 31 10 48 17 18 59 21 69 7z
m113 -18 c-10 -2 -28 -2 -40 0 -13 2 -5 4 17 4 22 1 32 -1 23 -4z m-98 -27 c0
-8 -7 -22 -16 -30 -16 -16 -44 -22 -44 -9 0 10 42 53 52 53 4 0 8 -6 8 -14z
m88 -3 c-10 -2 -26 -2 -35 0 -10 3 -2 5 17 5 19 0 27 -2 18 -5z m-79 -30 c-17
-21 -31 -33 -42 -33 -8 0 44 49 52 50 2 0 -3 -8 -10 -17z m69 0 c-10 -2 -26
-2 -35 0 -10 3 -2 5 17 5 19 0 27 -2 18 -5z m17 -23 c4 -6 -12 -10 -40 -10
-25 0 -44 3 -42 8 8 11 75 13 82 2z m-148 -6 c-3 -3 -12 -4 -19 -1 -8 3 -5 6
6 6 11 1 17 -2 13 -5z"/>
</g>
</svg>
