<?xml version="1.0" encoding="UTF-8"?>
<svg version="1.1" xmlns="http://www.w3.org/2000/svg" width="98" height="98">
<path d="M0 0 C1.58099349 1.2052869 3.14513983 2.43315473 4.6875 3.6875 C5.62529297 4.40292969 5.62529297 4.40292969 6.58203125 5.1328125 C13.7063347 11.27611705 20.08009147 23.42792085 20.86450195 32.80297852 C21.40529201 52.777738 21.40529201 52.777738 16.6875 61.6875 C16.24019531 62.55632812 15.79289062 63.42515625 15.33203125 64.3203125 C10.03946531 73.82706633 3.31832271 79.7291981 -6.3125 84.6875 C-7.09882812 85.10386719 -7.88515625 85.52023438 -8.6953125 85.94921875 C-18.84613924 90.48367897 -32.93122962 90.62445491 -43.4375 87.0625 C-45.0873693 86.32406084 -46.71453226 85.53240248 -48.3125 84.6875 C-49.59833984 84.03394531 -49.59833984 84.03394531 -50.91015625 83.3671875 C-61.97467118 77.25917473 -69.7092437 68.14342827 -74.1875 56.3125 C-77.3099279 44.49588663 -76.88182987 29.61321477 -71.3125 18.6875 C-64.3244171 6.73511069 -54.17526503 -3.21802728 -40.46875 -6.83984375 C-26.09954114 -8.99166834 -12.33514878 -8.18655614 0 0 Z M-61.72265625 9.62890625 C-69.58812482 19.8134319 -74.55404477 31.65127992 -73.3125 44.6875 C-70.90830638 58.05034363 -65.65987855 69.33757393 -54.66796875 77.69921875 C-43.84987286 84.91632608 -32.65462346 88.04100395 -19.625 86 C-7.5139921 83.37623789 3.47416324 76.86891798 10.6875 66.6875 C12.58237047 63.44058668 14.19244344 60.13492454 15.6875 56.6875 C16.1 55.73875 16.5125 54.79 16.9375 53.8125 C19.91517752 41.40551033 18.70632187 29.01074353 12.6875 17.6875 C5.06310849 6.17311282 -4.14528491 -0.31442465 -17.3125 -4.3125 C-33.47903273 -7.45820465 -50.42487628 -2.77379107 -61.72265625 9.62890625 Z " fill="#0000FF" transform="translate(76.3125,8.3125)"/>
<path d="M0 0 C5.94 0 11.88 0 18 0 C17.34 2.97 16.68 5.94 16 9 C16.78375 9.12375 17.5675 9.2475 18.375 9.375 C21 10 21 10 23 12 C25.87696729 12.28103306 28.67929761 12.46600098 31.5625 12.5625 C39.88006757 12.88006757 39.88006757 12.88006757 41 14 C41.04063832 15.66617115 41.042721 17.33388095 41 19 C39.35 19.33 37.7 19.66 36 20 C36 20.99 36 21.98 36 23 C37.8253125 22.9071875 37.8253125 22.9071875 39.6875 22.8125 C44.61672419 22.82120888 47.27899851 24.33834339 50.8125 27.75 C52.52868326 31.00171564 52.38162088 33.37460162 52 37 C50.34860695 40.5386994 49.28394771 41.81070153 46 44 C43.52671814 44.25396729 43.52671814 44.25396729 40.55053711 44.25878906 C39.43605698 44.26509338 38.32157684 44.27139771 37.17332458 44.27789307 C35.97015091 44.2738446 34.76697723 44.26979614 33.52734375 44.265625 C31.67635826 44.26849518 31.67635826 44.26849518 29.78797913 44.27142334 C26.50895162 44.27313424 23.23011322 44.26507662 19.95111084 44.25390625 C17.93796774 44.25000091 15.92499877 44.25389583 13.91186523 44.26074219 C10.05444172 44.2730579 6.19727783 44.27161106 2.33984375 44.265625 C1.13464584 44.26967346 -0.07055206 44.27372192 -1.31227112 44.27789307 C-2.42359909 44.27158875 -3.53492706 44.26528442 -4.67993164 44.25878906 C-5.66127579 44.25719788 -6.64261993 44.25560669 -7.65370178 44.25396729 C-10 44 -10 44 -12 42 C-12.1875 39.4375 -12.1875 39.4375 -12 37 C-11.505 36.505 -11.505 36.505 -11 36 C-10.83983614 33.64796402 -10.72246761 31.29296721 -10.625 28.9375 C-10.28918161 23.07348777 -9.84786295 18.20471504 -7 13 C-2.1 9 -2.1 9 1 9 C0.67 6.03 0.34 3.06 0 0 Z M3 2 C3.33 3.98 3.66 5.96 4 8 C5.47906892 8.02689216 6.95827483 8.04634621 8.4375 8.0625 C9.67306641 8.07990234 9.67306641 8.07990234 10.93359375 8.09765625 C12.99163938 8.23267348 12.99163938 8.23267348 14 7 C14 5.35 14 3.7 14 2 C10.37 2 6.74 2 3 2 Z M-6 16 C-7.94318899 19.88637798 -7.3762544 24.94077475 -7.51757812 29.25976562 C-7.55173828 30.04673828 -7.58589844 30.83371094 -7.62109375 31.64453125 C-7.6461499 32.35971924 -7.67120605 33.07490723 -7.69702148 33.81176758 C-8 36 -8 36 -10 41 C-1.75 41 6.5 41 15 41 C15.33 40.01 15.66 39.02 16 38 C16.99 37.67 17.98 37.34 19 37 C19 36.34 19 35.68 19 35 C17.68 34.67 16.36 34.34 15 34 C15.33 32.02 15.66 30.04 16 28 C16.99 27.67 17.98 27.34 19 27 C19 26.34 19 25.68 19 25 C17.68 25 16.36 25 15 25 C15 22.69 15 20.38 15 18 C16.32 18 17.64 18 19 18 C19.33 16.35 19.66 14.7 20 13 C16.21037165 10.4735811 13.08359605 10.59611501 8.6875 10.5625 C7.56698242 10.51319336 7.56698242 10.51319336 6.42382812 10.46289062 C0.58236298 10.40647612 -1.93636851 11.81036443 -6 16 Z M22 16 C22 16.66 22 17.32 22 18 C27.28 18 32.56 18 38 18 C38 17.34 38 16.68 38 16 C32.72 16 27.44 16 22 16 Z M18 20 C18 20.99 18 21.98 18 23 C23.28 23 28.56 23 34 23 C33.67 22.01 33.34 21.02 33 20 C28.05 20 23.1 20 18 20 Z M22 25 C22 25.66 22 26.32 22 27 C25.96 27 29.92 27 34 27 C34 26.34 34 25.68 34 25 C30.04 25 26.08 25 22 25 Z M35.26171875 27.30078125 C33.22434636 30.04461094 33.17626233 32.65101579 33 36 C33.78729084 38.64816011 34.52280109 39.62884529 36.6875 41.3125 C40.07161918 42.31858949 42.59666774 41.80442399 46 41 C48.64764845 39.32315598 48.95477045 38.14861139 49.875 35.125 C50.0235372 31.41157001 49.18476995 29.94103647 47 27 C45.42077594 25.42077594 43.80556126 25.792341 41.625 25.75 C40.83351563 25.72421875 40.04203125 25.6984375 39.2265625 25.671875 C36.94234134 25.82801841 36.94234134 25.82801841 35.26171875 27.30078125 Z M18 30 C18 30.66 18 31.32 18 32 C22.29 32 26.58 32 31 32 C31 31.34 31 30.68 31 30 C26.71 30 22.42 30 18 30 Z M22 35 C22 35.66 22 36.32 22 37 C24.97 37 27.94 37 31 37 C31 36.34 31 35.68 31 35 C28.03 35 25.06 35 22 35 Z M18 39 C18 39.66 18 40.32 18 41 C22.95 41 27.9 41 33 41 C33 40.34 33 39.68 33 39 C28.05 39 23.1 39 18 39 Z " fill="#0000FF" transform="translate(27,32)"/>
<path d="M0 0 C2.97 0 5.94 0 9 0 C10.2834998 4.0911556 11.38021934 7.6908475 11 12 C10 13 10 13 7.71484375 13.09765625 C5.14322917 13.06510417 2.57161458 13.03255208 0 13 C0 8.71 0 4.42 0 0 Z M3 2 C3 2.99 3 3.98 3 5 C4.32 5 5.64 5 7 5 C7 4.01 7 3.02 7 2 C5.68 2 4.36 2 3 2 Z M3 8 C3 8.99 3 9.98 3 11 C4.65 10.67 6.3 10.34 8 10 C8 9.34 8 8.68 8 8 C6.35 8 4.7 8 3 8 Z " fill="#0000FF" transform="translate(28,50)"/>
<path d="M0 0 C2.71604883 1.92982417 3.74692606 3.34200775 4.9375 6.4375 C5.01997067 9.81879751 4.0198841 11.33086744 2 14 C-1 16 -1 16 -4.5 15.8125 C-8 15 -8 15 -9.875 13.8125 C-11.52261692 11.15800608 -11.87533099 9.11672513 -12 6 C-9.1840965 -0.03407893 -6.51096853 -0.56129039 0 0 Z M-7.8125 3.125 C-9.52849028 5.83445834 -9.333728 7.86295684 -9 11 C-7.05667668 13.37994368 -7.05667668 13.37994368 -3.5 13.25 C0.05667668 13.37994368 0.05667668 13.37994368 2 11 C2.333728 7.86295684 2.52849028 5.83445834 0.8125 3.125 C-2.23184869 1.23540426 -4.76815131 1.23540426 -7.8125 3.125 Z " fill="#0301FE" transform="translate(72,17)"/>
<path d="M0 0 C2.375 -0.125 2.375 -0.125 5 0 C7 2 7 2 7.1875 5.0625 C7 8 7 8 6 9 C4.00041636 9.04080783 1.99954746 9.04254356 0 9 C0 6.03 0 3.06 0 0 Z M2 2 C2.33 2.66 2.66 3.32 3 4 C3.33 3.34 3.66 2.68 4 2 C3.34 2 2.68 2 2 2 Z M2 5 C2 5.66 2 6.32 2 7 C2.99 6.67 3.98 6.34 5 6 C4.01 5.67 3.02 5.34 2 5 Z " fill="#0000FF" transform="translate(65,61)"/>
<path d="M0 0 C1.65 0 3.3 0 5 0 C6.125 4.75 6.125 4.75 5 7 C3.35 7 1.7 7 0 7 C0 4.69 0 2.38 0 0 Z " fill="#0000FF" transform="translate(66,21)"/>
</svg>
