<?xml version="1.0" standalone="no"?>
<!DOCTYPE svg PUBLIC "-//W3C//DTD SVG 20010904//EN"
 "http://www.w3.org/TR/2001/REC-SVG-20010904/DTD/svg10.dtd">
<svg version="1.0" xmlns="http://www.w3.org/2000/svg"
 width="280.000000pt" height="280.000000pt" viewBox="0 0 280.000000 280.000000"
 preserveAspectRatio="xMidYMid meet">

<g transform="translate(0.000000,280.000000) scale(0.100000,-0.100000)"
fill="#0000FF" stroke="none">
<path d="M1110 2782 c-8 -2 -33 -19 -55 -37 -121 -96 -268 -181 -405 -235
-147 -56 -269 -80 -444 -87 -140 -5 -162 -9 -179 -26 -19 -19 -19 -33 -15
-496 5 -472 5 -477 32 -605 74 -346 228 -630 472 -868 85 -83 168 -151 249
-202 162 -104 342 -208 360 -208 33 0 344 190 470 287 169 131 364 364 455
545 39 77 100 225 100 243 0 15 -67 40 -75 27 -3 -4 -23 -52 -45 -106 -97
-238 -259 -455 -467 -625 -66 -55 -265 -184 -389 -254 l-51 -29 -114 69 c-248
149 -310 195 -444 330 -218 217 -341 431 -414 717 -45 174 -52 288 -49 718 l3
385 40 2 c271 17 463 63 662 159 76 37 276 164 287 183 13 21 42 11 108 -37
36 -27 95 -66 132 -88 56 -33 66 -43 66 -67 0 -15 7 -44 15 -64 8 -20 13 -38
11 -41 -10 -9 -98 42 -188 109 -51 38 -102 69 -113 69 -12 0 -57 -26 -100 -58
-224 -163 -436 -241 -701 -258 -66 -4 -108 -12 -115 -20 -7 -9 -9 -138 -7
-421 l5 -408 31 -120 c34 -132 91 -281 145 -378 89 -158 236 -330 380 -445
102 -81 343 -242 362 -242 18 0 268 168 365 245 97 78 238 230 303 328 67 100
167 297 167 327 0 7 -49 24 -73 25 -4 0 -23 -35 -41 -77 -90 -206 -232 -394
-404 -530 -87 -70 -303 -218 -317 -218 -11 0 -213 134 -290 193 -273 209 -461
516 -526 862 -18 92 -22 164 -26 437 -4 254 -3 331 7 343 8 10 30 15 61 15 65
0 268 42 357 75 130 47 238 104 347 182 32 24 63 43 67 43 4 0 42 -24 83 -53
42 -30 114 -74 160 -98 92 -48 95 -53 71 -119 -12 -33 -16 -35 -71 -42 -32 -4
-69 -15 -82 -23 -37 -25 -63 -75 -63 -122 l0 -43 -129 0 c-93 0 -132 -4 -138
-12 -4 -7 -10 -89 -13 -183 l-5 -170 -170 -5 c-93 -3 -176 -9 -182 -13 -19
-12 -18 -320 0 -336 8 -6 79 -12 183 -13 l169 -3 5 -170 c3 -93 9 -176 13
-182 6 -10 52 -13 172 -13 120 0 166 3 172 13 4 6 10 89 13 182 l5 170 169 3
c104 1 175 7 183 13 9 8 13 44 13 130 0 131 2 134 62 103 17 -9 52 -22 79 -30
48 -14 49 -16 49 -55 0 -87 50 -149 127 -156 85 -8 139 46 152 150 6 48 8 50
46 62 22 6 54 19 72 28 44 23 66 21 94 -9 34 -36 72 -54 116 -54 43 0 96 28
113 61 37 69 30 122 -26 187 l-35 42 35 87 35 88 53 5 c61 6 88 19 117 56 42
53 18 163 -41 195 -12 7 -46 15 -76 18 l-53 6 -34 80 c-19 44 -35 84 -35 88 0
5 18 29 40 54 49 57 57 116 22 175 -18 31 -85 68 -121 68 -30 0 -80 -26 -118
-63 l-32 -30 -68 30 c-37 17 -75 33 -84 36 -11 4 -18 21 -21 56 -10 102 -89
165 -176 141 -57 -15 -93 -63 -101 -137 l-6 -56 -52 -18 c-29 -10 -66 -26 -83
-35 -29 -18 -30 -18 -57 8 -67 61 -121 74 -197 47 -28 -10 -37 -8 -95 26 -35
20 -100 65 -146 100 -90 68 -103 74 -125 67z m930 -92 c10 -6 16 -32 18 -82 2
-40 9 -78 14 -85 5 -6 32 -16 59 -22 27 -6 80 -27 119 -46 38 -19 75 -35 82
-35 7 0 37 23 66 50 55 53 83 61 114 33 29 -26 22 -50 -32 -107 -27 -29 -50
-62 -50 -73 0 -11 13 -44 30 -74 16 -30 36 -81 45 -114 8 -33 23 -66 32 -72 9
-7 45 -13 79 -13 88 0 119 -35 74 -80 -16 -16 -33 -20 -85 -20 -73 0 -88 -12
-100 -82 -4 -20 -22 -67 -41 -104 -19 -37 -34 -74 -34 -82 0 -8 23 -39 50 -68
28 -29 50 -62 50 -73 0 -24 -33 -61 -55 -61 -8 0 -42 25 -75 55 -33 30 -63 55
-68 55 -4 0 -37 -15 -72 -34 -36 -19 -85 -40 -110 -46 -80 -21 -90 -32 -90
-101 0 -75 -12 -99 -48 -99 -42 0 -52 17 -52 90 0 78 -10 91 -84 109 -26 7
-79 27 -117 46 -38 19 -71 35 -74 35 -4 0 -30 -22 -58 -49 -65 -60 -89 -69
-116 -42 -32 32 -25 58 29 115 28 29 50 60 50 70 0 9 -13 40 -30 69 -16 28
-36 78 -44 111 -21 81 -28 86 -100 86 -71 0 -106 18 -106 55 0 33 27 45 103
45 74 0 81 6 97 74 6 26 26 78 45 116 19 38 35 77 35 85 0 9 -22 40 -50 69
-53 56 -60 78 -33 108 26 29 55 21 113 -32 30 -27 60 -50 67 -50 7 0 43 15 80
34 38 19 90 40 118 46 70 16 75 23 75 97 0 35 5 73 10 84 11 20 45 25 70 9z
m-836 -826 c14 -5 16 -30 16 -175 0 -201 -1 -199 116 -199 66 0 73 -2 88 -25
26 -39 75 -65 124 -65 l42 0 0 -44 0 -45 -168 -3 c-125 -2 -173 -7 -185 -17
-15 -11 -17 -38 -17 -182 0 -195 8 -182 -115 -177 l-70 3 -5 172 c-4 122 -9
176 -18 185 -9 9 -60 14 -182 16 l-170 3 0 89 0 89 171 3 c155 3 172 5 185 22
11 15 14 58 14 181 0 89 3 165 7 168 8 9 146 9 167 1z m212 -2 c6 -4 15 -18
19 -32 4 -14 18 -51 32 -82 l25 -57 -48 -55 c-45 -51 -53 -56 -91 -56 l-43 0
0 145 0 145 48 0 c26 0 52 -4 58 -8z"/>
<path d="M1952 2403 c-71 -35 -98 -112 -63 -181 36 -70 131 -98 189 -55 92 68
88 165 -8 231 -39 26 -73 28 -118 5z m91 -94 c19 -26 10 -58 -19 -71 -46 -21
-84 41 -48 76 21 22 50 20 67 -5z"/>
<path d="M1683 2129 c-37 -11 -78 -60 -87 -105 -19 -87 77 -173 168 -150 40
10 85 55 96 96 27 101 -73 190 -177 159z m81 -95 c19 -18 20 -28 6 -55 -12
-22 -59 -26 -78 -7 -26 26 -1 78 38 78 10 0 26 -7 34 -16z"/>
<path d="M2243 2129 c-40 -12 -80 -59 -89 -106 -14 -76 53 -153 136 -153 140
0 180 202 50 254 -45 18 -51 18 -97 5z m82 -103 c27 -41 -1 -74 -55 -66 -19 3
-30 19 -30 46 0 47 59 61 85 20z"/>
<path d="M1939 1837 c-75 -50 -86 -137 -26 -204 75 -81 207 -40 231 72 9 43
-29 113 -74 137 -47 24 -90 23 -131 -5z m97 -75 c35 -24 18 -82 -24 -82 -33 0
-52 16 -52 45 0 37 44 59 76 37z"/>
<path d="M2487 1303 c-4 -3 -7 -26 -7 -49 0 -33 -5 -46 -19 -54 -29 -15 -40
-13 -67 17 l-25 27 -30 -30 -30 -31 27 -32 c23 -27 25 -36 16 -56 -9 -20 -20
-24 -59 -27 -44 -3 -48 -5 -51 -31 -5 -41 14 -57 64 -57 38 0 44 -3 50 -26 5
-19 0 -32 -20 -53 l-26 -27 30 -29 30 -29 28 27 c25 24 33 26 55 18 24 -10 27
-16 27 -61 l0 -51 43 3 42 3 3 48 c3 40 7 50 28 59 21 10 28 8 52 -15 l28 -27
27 26 c15 13 27 28 27 31 0 4 -12 19 -26 34 -22 23 -24 30 -15 48 9 17 21 21
56 21 l45 0 0 45 0 45 -45 0 c-40 0 -47 3 -56 27 -8 22 -6 30 18 55 l27 28
-29 30 -29 30 -27 -25 c-20 -20 -32 -25 -53 -19 -23 5 -26 11 -26 48 0 23 -5
47 -12 54 -13 13 -60 16 -71 5z m98 -208 c19 -18 25 -35 25 -68 0 -57 -34 -92
-90 -92 -56 0 -90 35 -90 92 0 59 33 93 90 93 30 0 47 -6 65 -25z"/>
<path d="M2290 701 c0 -29 -5 -51 -10 -51 -6 0 -30 -9 -52 -20 -23 -11 -46
-20 -52 -20 -6 0 -27 17 -48 37 l-38 37 -30 -29 -30 -29 35 -36 c19 -20 35
-40 35 -44 0 -5 -10 -35 -21 -67 l-21 -58 -47 -3 c-42 -3 -46 -5 -49 -31 -5
-39 14 -57 60 -57 28 0 40 -5 44 -17 3 -10 12 -31 20 -46 21 -42 18 -57 -21
-97 l-35 -36 30 -29 30 -29 40 39 39 38 58 -25 c56 -24 58 -26 63 -69 5 -44 5
-44 45 -44 l40 0 3 45 3 45 61 23 60 24 39 -38 39 -38 25 24 c14 13 25 28 25
34 0 6 -16 27 -36 47 l-36 37 21 40 c12 23 21 48 21 56 0 11 14 16 48 18 l47
3 3 42 c3 43 3 43 -32 43 -44 0 -66 9 -66 26 0 8 -9 33 -21 56 l-21 41 41 41
41 42 -30 29 -30 29 -38 -37 c-41 -40 -57 -44 -87 -23 -11 7 -32 16 -47 20
-24 5 -27 11 -30 54 l-3 47 -42 3 -43 3 0 -50z m126 -156 c63 -32 96 -80 102
-150 6 -70 -23 -132 -80 -171 -35 -24 -51 -29 -103 -29 -50 0 -69 5 -103 28
-108 71 -110 244 -3 311 65 42 119 45 187 11z"/>
<path d="M2340 425 l0 -45 39 0 c44 0 58 20 47 66 -5 20 -12 24 -46 24 l-40 0
0 -45z"/>
<path d="M1787 234 c-4 -4 -7 -25 -7 -46 l0 -39 43 3 c42 3 42 3 42 43 0 39
-1 40 -35 43 -20 2 -39 0 -43 -4z"/>
<path d="M1547 93 c-10 -9 -8 -55 2 -71 5 -8 22 -12 42 -10 32 3 34 5 37 46
l3 42 -39 0 c-21 0 -42 -3 -45 -7z"/>
</g>
</svg>
