<?xml version="1.0" standalone="no"?>
<!DOCTYPE svg PUBLIC "-//W3C//DTD SVG 20010904//EN"
 "http://www.w3.org/TR/2001/REC-SVG-20010904/DTD/svg10.dtd">
<svg version="1.0" xmlns="http://www.w3.org/2000/svg"
 width="60.000000pt" height="63.000000pt" viewBox="0 0 60.000000 63.000000"
 preserveAspectRatio="xMidYMid meet">

<g transform="translate(0.000000,63.000000) scale(0.100000,-0.100000)"
fill="currentColor" stroke="none">
<path d="M160 555 c0 -29 -4 -35 -22 -35 -35 0 -86 -46 -97 -88 -19 -69 15
-136 82 -161 16 -6 86 -11 157 -11 l129 0 -2 65 c-1 40 3 69 11 77 16 16 15
33 -4 53 -15 15 -15 17 0 34 15 16 15 24 4 60 l-13 41 -122 0 -123 0 0 -35z
m230 5 c0 -6 -43 -10 -110 -10 -67 0 -110 4 -110 10 0 6 43 10 110 10 67 0
110 -4 110 -10z m18 -42 c-7 -20 -146 -22 -188 -4 -34 15 -31 15 78 16 87 0
113 -3 110 -12z m-203 -22 c36 -15 75 -67 75 -99 0 -58 -58 -117 -115 -117
-55 0 -115 61 -115 117 0 31 39 83 73 98 40 18 41 18 82 1z m175 -26 c0 -5
-22 -10 -49 -10 -28 0 -53 5 -56 10 -4 6 15 10 49 10 31 0 56 -4 56 -10z m30
-40 c0 -24 -110 -26 -118 -2 -3 9 13 12 57 12 34 0 61 -4 61 -10z m-20 -45 c0
-11 -12 -15 -45 -15 -33 0 -45 4 -45 15 0 11 12 15 45 15 33 0 45 -4 45 -15z
m-12 -47 c-5 -15 -98 -24 -98 -10 0 17 14 22 58 22 30 0 42 -4 40 -12z m6 -34
c37 -14 10 -24 -66 -24 -75 1 -81 2 -64 15 20 15 100 20 130 9z"/>
<path d="M99 461 c-38 -39 -39 -87 -3 -130 35 -42 98 -44 138 -5 58 59 14 164
-69 164 -27 0 -44 -8 -66 -29z m121 -11 c27 -27 27 -90 0 -115 -30 -27 -88
-25 -111 4 -26 32 -25 85 3 111 28 26 82 26 108 0z"/>
<path d="M149 434 c-9 -11 -9 -18 -2 -22 6 -4 13 -21 16 -37 2 -19 5 -11 6 23
0 28 -1 52 -3 52 -2 0 -9 -7 -17 -16z"/>
<path d="M330 204 c-35 -13 -71 -31 -80 -39 -9 -8 -21 -15 -26 -15 -5 0 -2 5
6 10 30 19 -7 35 -76 33 -68 -1 -94 -13 -94 -44 0 -26 28 -41 167 -88 l121
-41 49 16 c26 9 60 22 75 30 22 12 27 11 32 -1 6 -17 61 -20 71 -4 4 6 -2 13
-14 16 -18 5 -21 13 -21 60 0 54 0 54 -42 73 -56 25 -89 24 -168 -6z m144 -14
c23 -8 26 -15 26 -55 0 -26 -4 -44 -9 -40 -6 3 -39 -6 -74 -20 l-64 -26 -128
45 c-134 48 -143 52 -131 63 3 4 50 -8 104 -26 l97 -33 50 19 c83 34 70 58
-15 28 -43 -15 -62 -13 -44 5 15 14 107 48 136 49 15 1 38 -3 52 -9z"/>
</g>
</svg>
