<?xml version="1.0" encoding="UTF-8"?>
<svg version="1.1" xmlns="http://www.w3.org/2000/svg" width="605" height="605">
<path d="M0 0 C-0.47566423 5.54524356 -1.14416351 11.00952016 -2.0625 16.5 C-3.77729827 26.66460782 -3.77729827 26.66460782 -1.4375 36.4375 C1.55752295 39.58611387 3.82559237 40.79720458 8 42 C13.42790584 41.90477358 16.84374642 40.47965416 21 37 C23.24005788 32.7399601 23.48232779 28.33857104 23.875 23.625 C25.94499319 2.05500681 25.94499319 2.05500681 30 -2 C32.97104013 -2.15357265 35.90277553 -2.23168121 38.875 -2.25 C39.70386719 -2.270625 40.53273438 -2.29125 41.38671875 -2.3125 C42.58361328 -2.32023438 42.58361328 -2.32023438 43.8046875 -2.328125 C44.53671387 -2.3374707 45.26874023 -2.34681641 46.02294922 -2.35644531 C48 -2 48 -2 49.80078125 -0.83789062 C51.57479776 1.8809197 50.96334088 3.58462626 50.3828125 6.734375 C50.18816406 7.86617187 49.99351562 8.99796875 49.79296875 10.1640625 C49.46232422 11.93910156 49.46232422 11.93910156 49.125 13.75 C46.76877704 25.38423421 46.76877704 25.38423421 49.125 36.75 C51.76797588 39.92157105 54.05387676 40.83557019 58 42 C62.16154101 42.19741656 65.30925609 41.43546899 68.875 39.1875 C71.92962531 36.04303276 73.15001024 33.17854652 73.78125 28.875 C73.95914063 27.69949585 73.95914063 27.69949585 74.140625 26.50024414 C74.31851563 25.26262329 74.31851563 25.26262329 74.5 24 C74.76039244 22.29036089 75.0208091 20.58072548 75.28125 18.87109375 C75.71002462 15.98970599 76.12553021 13.10744327 76.53125 10.22265625 C76.6859375 9.17980469 76.840625 8.13695312 77 7.0625 C77.185625 5.71865234 77.185625 5.71865234 77.375 4.34765625 C78.15640593 1.41250021 78.68006239 0.0115332 81 -2 C83.9771079 -2.35129873 86.53693041 -2.46898718 89.5 -2.375 C90.65822266 -2.37306641 90.65822266 -2.37306641 91.83984375 -2.37109375 C95.71227902 -2.31069181 97.71633068 -2.18911288 101 0 C100.47465205 5.16592149 99.80016474 10.25407527 98.9375 15.375 C97.14232158 26.15027579 97.14232158 26.15027579 99.625 36.5 C102.70873142 39.74603307 105.32886834 41.87178568 109.953125 42.09375 C114.84685421 41.72018288 118.21997748 40.24001931 122 37 C123.68005985 33.5393043 124.34904953 30.38682073 124.74609375 26.578125 C124.86146484 25.55203125 124.97683594 24.5259375 125.09570312 23.46875 C125.32188357 21.33877646 125.54587549 19.20856928 125.76757812 17.078125 C126.46919635 10.87597497 127.23534559 4.67673446 130 -1 C133.27021959 -2.63510979 136.84733751 -2.22628299 140.4375 -2.25 C141.60249023 -2.2809375 141.60249023 -2.2809375 142.79101562 -2.3125 C148.47295501 -2.35165204 148.47295501 -2.35165204 150.78271484 -0.81054688 C152.53229643 1.79171889 152.00741311 3.25715579 151.41796875 6.296875 C151.22783203 7.3384375 151.03769531 8.38 150.84179688 9.453125 C150.51791992 11.08507812 150.51791992 11.08507812 150.1875 12.75 C147.14946012 25.48339694 147.14946012 25.48339694 150.67578125 37.484375 C153.09433913 40.25251794 155.50463299 41.06790213 159 42 C163.16525634 42.18213098 166.30329901 41.43922454 169.875 39.1875 C173.40537744 35.55328793 174.26398805 32.33974522 174.9375 27.375 C175.10378906 26.23933594 175.27007812 25.10367188 175.44140625 23.93359375 C175.73641894 21.85612676 176.03041999 19.77850296 176.31591797 17.69970703 C176.65355219 15.27648321 177.01314414 12.85721227 177.375 10.4375 C177.47675537 9.66390137 177.57851074 8.89030273 177.68334961 8.09326172 C178.18320848 4.82713436 178.81209819 2.29448669 180.59765625 -0.50390625 C184.01201572 -2.63024719 187.17222587 -2.50806068 191.0625 -2.375 C191.78244141 -2.37371094 192.50238281 -2.37242187 193.24414062 -2.37109375 C197.00259522 -2.30827835 198.80801488 -2.12799008 202 0 C201.90912109 0.64437012 201.81824219 1.28874023 201.72460938 1.95263672 C201.3093747 4.9258235 200.90463942 7.90035347 200.5 10.875 C200.35691406 11.88820312 200.21382812 12.90140625 200.06640625 13.9453125 C198.19933163 25.42712305 198.19933163 25.42712305 200.625 36.4375 C203.35013884 39.37778138 205.1815554 40.75166234 209 42 C213.91264178 42.14477333 218.16234793 41.17976886 222 38 C225.60493754 32.45113412 225.86389857 26.60741257 226.5 20.1875 C228.00806881 5.13473911 228.00806881 5.13473911 231 -1 C234.12849259 -2.56424629 237.44430084 -2.18446398 240.875 -2.1875 C241.59558594 -2.19974609 242.31617188 -2.21199219 243.05859375 -2.22460938 C246.86487912 -2.23512398 249.77513112 -2.13584248 253 0 C252.08708071 6.65265654 251.17261678 13.2849605 249.875 19.875 C248.34588107 28.2330763 248.34588107 28.2330763 250.5625 36.3125 C253.55879952 39.61611229 255.70954282 40.78437047 260 42 C264.16336459 42.1899634 267.30644239 41.43724284 270.875 39.1875 C274.14663944 35.81963588 275.17883051 33.14770792 275.375 28.5 C275.81056364 22.76767139 276.78507954 17.19967001 277.875 11.5625 C278.03661621 10.6859375 278.19823242 9.809375 278.36474609 8.90625 C279.90100255 1.17868596 279.90100255 1.17868596 283 -2 C288.80408183 -1.59971849 292.43011922 -0.91704067 297 3 C298.84385067 6.66534169 299.25086889 9.65537967 299.25396729 13.73071289 C299.25960693 14.87468536 299.26524658 16.01865784 299.27105713 17.19729614 C299.26498444 19.0660994 299.26498444 19.0660994 299.25878906 20.97265625 C299.26404602 22.95143265 299.26404602 22.95143265 299.26940918 24.97018433 C299.27851451 28.58171653 299.27499661 32.19313426 299.26865101 35.80466843 C299.26358141 39.58731135 299.26828513 43.36994458 299.27142334 47.15258789 C299.27506018 53.5044124 299.27027128 59.85619037 299.26074219 66.20800781 C299.24985816 73.54765966 299.25338394 80.8872004 299.264395 88.22684956 C299.2734759 94.53271847 299.27474922 100.83855396 299.26951766 107.1444273 C299.26640238 110.90881356 299.26597647 114.67314762 299.27259064 118.43753052 C299.27944951 122.63420169 299.26993821 126.8306818 299.25878906 131.02734375 C299.26283752 132.27321259 299.26688599 133.51908142 299.27105713 134.80270386 C299.26541748 135.94667633 299.25977783 137.0906488 299.25396729 138.26928711 C299.25283621 139.75699867 299.25283621 139.75699867 299.25168228 141.27476501 C298.98331814 144.18063244 298.21315389 146.35972103 297 149 C293.625 149.125 293.625 149.125 290 149 C273.48569644 132.48569644 287.3434151 102.3522271 287 79 C187.34 79 87.68 79 -15 79 C-15.8715646 154.84345102 -15.8715646 154.84345102 -15.60510254 230.66571045 C-15.53849545 236.75815934 -15.48114711 242.85069101 -15.42356598 248.94323075 C-15.2939961 262.62895034 -15.15208364 276.3145131 -15 290 C-13.94109653 290.00054477 -12.88219305 290.00108953 -11.79120159 290.00165081 C13.94654063 290.01603132 39.68411343 290.05898595 65.4217577 290.13209057 C77.86818728 290.16677812 90.31450567 290.19210103 102.76098633 290.19555664 C113.60639756 290.1985913 124.45161097 290.21901455 135.29694575 290.26052457 C141.04219421 290.28190152 146.78716109 290.29443107 152.53244972 290.28615379 C157.93585197 290.2786434 163.33868229 290.29431351 168.7419796 290.32806015 C170.72898549 290.33632986 172.71604786 290.33600082 174.70304871 290.32659721 C177.4089418 290.31505537 180.11293527 290.33396929 182.81867981 290.36076355 C183.61147663 290.35009029 184.40427346 290.33941703 185.22109443 290.32842034 C187.41367817 290.36914349 187.41367817 290.36914349 191 291 C193.56205804 294.08846152 194.5580328 297.02229523 195 301 C193.19992711 302.80007289 190.74286625 302.13057956 188.34552884 302.1430676 C187.11769244 302.14176787 187.11769244 302.14176787 185.86505127 302.14044189 C185.00201157 302.14341302 184.13897188 302.14638414 183.24977946 302.1494453 C180.33480431 302.15817204 177.41987003 302.15964389 174.50488281 302.16113281 C172.42420361 302.16575823 170.34352525 302.17078251 168.2628479 302.17617798 C162.59333104 302.18933185 156.92382604 302.1957529 151.2542963 302.20018864 C147.71527254 302.20311496 144.17625204 302.20721894 140.63722992 302.21169281 C129.57353583 302.22537648 118.50984918 302.2350385 107.4461472 302.2388947 C94.65826594 302.24337577 81.87049155 302.26092237 69.08264279 302.2898953 C59.21001249 302.3114896 49.33741231 302.3215978 39.46475863 302.32293582 C33.56300427 302.3239856 27.66135025 302.32992982 21.75962067 302.34775543 C16.20781061 302.36419687 10.65617672 302.36641071 5.10435104 302.35761642 C3.06494806 302.3568439 1.02553577 302.36121694 -1.01384354 302.37107468 C-3.79514616 302.3837315 -6.57581894 302.37795147 -9.3571167 302.36749268 C-10.57156877 302.37957728 -10.57156877 302.37957728 -11.81055522 302.39190602 C-16.3938543 302.35151757 -19.35141539 301.83508019 -23 299 C-26.66695038 294.64505573 -26.44147772 290.35348112 -26.43237305 284.92749023 C-26.44255054 284.00661401 -26.45272802 283.08573778 -26.46321392 282.13695621 C-26.49371117 279.02744246 -26.50269638 275.91823888 -26.51171875 272.80859375 C-26.52891907 270.55065004 -26.54731513 268.29271517 -26.56680298 266.03479004 C-26.61609917 259.81236203 -26.6456093 253.58998046 -26.67056656 247.36741257 C-26.68748716 243.44047876 -26.70914239 239.51360084 -26.73251343 235.58670044 C-26.82727697 219.65979047 -26.89577084 203.73290551 -26.94815731 187.80580235 C-26.98543645 176.57288267 -27.03350969 165.34004106 -27.08573925 154.10718167 C-27.16831135 136.28470904 -27.23213759 118.46227195 -27.2716074 100.63964939 C-27.27575419 98.77898213 -27.27991441 96.9183149 -27.28408813 95.05764771 C-27.28613949 94.13926847 -27.28819085 93.22088923 -27.29030436 92.27468032 C-27.30572602 85.78406078 -27.33082101 79.29352021 -27.35971069 72.802948 C-27.39495401 64.8259022 -27.41562179 56.84897322 -27.41812778 48.87184751 C-27.41978128 44.75893525 -27.42792106 40.64630272 -27.45329666 36.53346252 C-27.47649488 32.73697085 -27.48089981 28.94092612 -27.47068083 25.14438164 C-27.46999532 23.11559056 -27.48903046 21.08682229 -27.50879955 19.0581274 C-27.46806494 11.92941845 -27.03170719 6.9799128 -23 1 C-16.761997 -3.13613127 -6.23553975 -4.1570265 0 0 Z " fill="#0000FF" transform="translate(131,140)"/>
<path d="M0 0 C0.84433594 0.74894531 1.68867188 1.49789063 2.55859375 2.26953125 C20.8288536 19.45668677 30.65083459 43.69738834 32.22265625 68.515625 C32.90622322 96.45270995 22.87423394 122.30405727 3.74267578 142.61572266 C-15.44289631 161.85263425 -41.62295973 171.25558492 -68.47460938 171.3190918 C-94.32152976 170.97585391 -118.38555769 160.14458591 -136.9140625 142.25390625 C-155.76430714 122.68682132 -165.50291694 97.09569162 -165.2109375 70 C-164.24894336 46.38957584 -155.74385186 24.68246048 -140 7 C-139.3090625 6.20335937 -138.618125 5.40671875 -137.90625 4.5859375 C-121.55052078 -13.05808546 -97.07188619 -24.56595967 -73.00390625 -25.96484375 C-45.26113276 -26.28953161 -20.96210436 -18.67757458 0 0 Z M-121.9453125 22.16796875 C-136.5481955 39.63035165 -142.69630498 59.41931686 -141 82 C-139.74747062 90.67574317 -137.15011611 99.2716919 -133 107 C-132.60425781 107.77214844 -132.20851563 108.54429687 -131.80078125 109.33984375 C-122.10865021 126.91898113 -105.94625675 139.02759106 -87 145 C-67.53713378 150.47071759 -46.82769739 147.31939213 -29.1875 137.91796875 C-24.38459793 135.02798723 -20.15344834 131.7540783 -16 128 C-15.30390625 127.38511719 -14.6078125 126.77023437 -13.890625 126.13671875 C-0.63178462 113.72582746 7.45348394 95.70717685 8.21484375 77.58984375 C8.46660237 68.32012839 8.09171981 59.83181846 5 51 C4.37931641 49.18048828 4.37931641 49.18048828 3.74609375 47.32421875 C-2.84627337 28.99382718 -16.47171314 13.62407721 -34 5 C-63.97100018 -7.76866312 -99.65238822 -2.6765553 -121.9453125 22.16796875 Z " fill="#0000FF" transform="translate(489,322)"/>
<path d="M0 0 C9.4359375 -0.061875 9.4359375 -0.061875 19.0625 -0.125 C22.02101929 -0.15231201 22.02101929 -0.15231201 25.03930664 -0.18017578 C26.62125375 -0.18602285 28.20320389 -0.1911179 29.78515625 -0.1953125 C30.59142456 -0.20554443 31.39769287 -0.21577637 32.22839355 -0.22631836 C39.5630809 -0.22855967 45.51893626 0.67118803 51 6 C54.59891282 10.37010842 55.29436614 15.46591658 55 21 C53.58724466 25.48757578 51.41494952 28.79112502 48 32 C48.83144531 32.67095703 48.83144531 32.67095703 49.6796875 33.35546875 C57.56230442 39.93366685 57.56230442 39.93366685 58.2421875 46.25 C58.64485508 54.01911569 56.51784605 58.9520811 51.625 64.875 C45.93736938 69.4792724 39.98561251 69.27484051 33.0078125 69.1953125 C32.16855225 69.19329834 31.32929199 69.19128418 30.46459961 69.18920898 C27.35134356 69.1788024 24.23816587 69.15088007 21.125 69.125 C14.15375 69.08375 7.1825 69.0425 0 69 C0 46.23 0 23.46 0 0 Z M15 12 C15 16.95 15 21.9 15 27 C18.23006734 27.1081697 21.45649754 27.18739234 24.6875 27.25 C25.59951172 27.28351563 26.51152344 27.31703125 27.45117188 27.3515625 C31.78668434 27.4146245 34.30698913 27.40693737 38.11328125 25.171875 C40.25359996 23.09029489 40.25359996 23.09029489 40.5 20 C39.95339523 16.72037139 39.38114219 15.2961014 37 13 C34.18015541 12.0808924 31.62504851 11.88124965 28.671875 11.90234375 C27.47304688 11.90717773 27.47304688 11.90717773 26.25 11.91210938 C25.0125 11.92467773 25.0125 11.92467773 23.75 11.9375 C22.90953125 11.94201172 22.0690625 11.94652344 21.203125 11.95117188 C19.13538599 11.96292039 17.06768376 11.98085478 15 12 Z M15 40 C15 45.61 15 51.22 15 57 C18.20884784 57.08127476 21.41561761 57.14063141 24.625 57.1875 C25.52863281 57.21263672 26.43226563 57.23777344 27.36328125 57.26367188 C32.686304 57.32195315 36.40433983 57.01475307 41 54 C42.98789991 51.49351751 43.0045232 50.21711338 42.9375 47 C41.68927606 43.00568339 40.63418628 42.11017268 37 40 C33.21641252 39.51261503 29.4941799 39.62335422 25.6875 39.75 C24.66076172 39.76804687 23.63402344 39.78609375 22.57617188 39.8046875 C20.05037929 39.85167899 17.52506863 39.92341831 15 40 Z " fill="#0000FF" transform="translate(396,356)"/>
<path d="M0 0 C0.83096191 -0.00945648 1.66192383 -0.01891296 2.51806641 -0.02865601 C3.41187012 -0.02258331 4.30567383 -0.01651062 5.2265625 -0.01025391 C6.14743652 -0.01312408 7.06831055 -0.01599426 8.01708984 -0.01895142 C9.96387344 -0.02099272 11.91067752 -0.01545824 13.85742188 -0.00292969 C16.84030949 0.01312303 19.82184211 -0.00277613 22.8046875 -0.02197266 C24.6953155 -0.01999024 26.58594265 -0.01614659 28.4765625 -0.01025391 C29.37036621 -0.0163266 30.26416992 -0.02239929 31.18505859 -0.02865601 C32.43150146 -0.01447128 32.43150146 -0.01447128 33.703125 0 C34.79874756 0.00358017 34.79874756 0.00358017 35.91650391 0.00723267 C38.4449369 0.50499997 39.32709526 1.33381414 40.8515625 3.38818359 C41.13796233 6.18964341 41.2481178 8.76386879 41.21484375 11.56396484 C41.21559151 12.76813301 41.21559151 12.76813301 41.21635437 13.99662781 C41.21401432 15.69544955 41.20428982 17.39427479 41.18774414 19.09301758 C41.16424436 21.680658 41.16717209 24.26726109 41.17382812 26.85498047 C41.16824783 28.50798135 41.16113574 30.16097792 41.15234375 31.81396484 C41.15371086 32.96739128 41.15371086 32.96739128 41.15510559 34.14411926 C41.09730152 38.57481773 40.65896161 42.26000585 38.8515625 46.38818359 C35.44115083 48.09338943 31.54622711 47.57312247 27.79296875 47.59130859 C26.44282936 47.5998587 26.44282936 47.5998587 25.06541443 47.60858154 C23.15975116 47.6180356 21.2540715 47.62456713 19.34838867 47.62841797 C16.429236 47.6381331 13.51078449 47.66915626 10.59179688 47.70068359 C8.74219169 47.70721261 6.89258146 47.71246348 5.04296875 47.71630859 C4.16790176 47.7286554 3.29283478 47.7410022 2.39125061 47.75372314 C1.57708176 47.75072205 0.7629129 47.74772095 -0.07592773 47.74462891 C-1.14942726 47.75009735 -1.14942726 47.75009735 -2.24461365 47.75567627 C-4.77009708 47.26818544 -5.63725135 46.4486691 -7.1484375 44.38818359 C-7.52938843 42.49108887 -7.52938843 42.49108887 -7.53662109 40.33154297 C-7.54607758 39.52060181 -7.55553406 38.70966064 -7.5652771 37.87414551 C-7.55920441 37.00221558 -7.55313171 36.13028564 -7.546875 35.23193359 C-7.54974518 34.33325562 -7.55261536 33.43457764 -7.55557251 32.50866699 C-7.55761365 30.60896169 -7.55208028 28.70923539 -7.53955078 26.80957031 C-7.52349771 23.8990995 -7.53939763 20.99001739 -7.55859375 18.07958984 C-7.55661133 16.23453469 -7.55276767 14.3894804 -7.546875 12.54443359 C-7.55294769 11.67250366 -7.55902039 10.80057373 -7.5652771 9.90222168 C-7.55582062 9.09128052 -7.54636414 8.28033936 -7.53662109 7.44482422 C-7.53423431 6.73217407 -7.53184753 6.01952393 -7.52938843 5.28527832 C-6.6761795 1.03638947 -4.01971749 0.01313524 0 0 Z " fill="#0000FF" transform="translate(287.1484375,231.61181640625)"/>
<path d="M0 0 C1.48910889 -0.03202515 1.48910889 -0.03202515 3.00830078 -0.06469727 C3.93497559 -0.06912842 4.86165039 -0.07355957 5.81640625 -0.078125 C6.6369751 -0.0874707 7.45754395 -0.09681641 8.30297852 -0.10644531 C11.00976302 0.34556262 11.73777106 1.1287675 13.4375 3.25 C13.82518005 5.18505859 13.82518005 5.18505859 13.84155273 7.3984375 C13.85423691 8.22939941 13.86692108 9.06036133 13.87998962 9.91650391 C13.87705399 10.81030762 13.87411835 11.70411133 13.87109375 12.625 C13.8763356 13.54587402 13.88157745 14.46674805 13.88697815 15.41552734 C13.89340098 17.36229443 13.89205798 19.30910031 13.88354492 21.25585938 C13.87503144 24.23898167 13.90379783 27.22019181 13.93554688 30.203125 C13.93715884 32.09374942 13.93658145 33.98437725 13.93359375 35.875 C13.95044472 37.21570557 13.95044472 37.21570557 13.96763611 38.58349609 C13.89929125 44.6374641 13.89929125 44.6374641 11.88037109 47.31542969 C8.52542161 48.59893425 5.39376087 48.64043614 1.85546875 48.578125 C1.12306473 48.57625183 0.39066071 48.57437866 -0.36393738 48.57244873 C-1.91137248 48.56573852 -3.45879091 48.55184437 -5.00610352 48.53125 C-7.3564459 48.50024476 -9.7061144 48.49028889 -12.05664062 48.484375 C-13.56511221 48.47519722 -15.07357707 48.464819 -16.58203125 48.453125 C-17.27706253 48.44887512 -17.97209381 48.44462524 -18.68818665 48.44024658 C-30.54294258 48.26955742 -30.54294258 48.26955742 -33.5625 45.25 C-33.80973816 43.3837738 -33.80973816 43.3837738 -33.80541992 41.09155273 C-33.80849655 40.23403915 -33.81157318 39.37652557 -33.81474304 38.49302673 C-33.80755753 37.56591385 -33.80037201 36.63880096 -33.79296875 35.68359375 C-33.79251053 34.73436539 -33.79205231 33.78513702 -33.7915802 32.80714417 C-33.78855638 30.79890697 -33.78066624 28.79067216 -33.76831055 26.7824707 C-33.75005439 23.69669351 -33.74780082 20.61121617 -33.74804688 17.52539062 C-33.74313183 15.57812239 -33.73730357 13.6308562 -33.73046875 11.68359375 C-33.72935593 10.75445663 -33.7282431 9.82531952 -33.72709656 8.86802673 C-33.72071671 8.01366531 -33.71433685 7.15930389 -33.70776367 6.27905273 C-33.70395187 5.52341537 -33.70014008 4.76777802 -33.69621277 3.98924255 C-33.5625 2.25 -33.5625 2.25 -32.5625 1.25 C-29.68136433 1.00120257 -26.82485661 0.81915149 -23.9375 0.6875 C-23.059729 0.6472168 -22.18195801 0.60693359 -21.27758789 0.56542969 C-14.18705572 0.26918697 -7.09618172 0.08159765 0 0 Z " fill="#0000FF" transform="translate(166.5625,298.75)"/>
<path d="M0 0 C0.85428589 -0.00953201 1.70857178 -0.01906403 2.58874512 -0.02888489 C3.51272095 -0.02797348 4.43669678 -0.02706207 5.38867188 -0.02612305 C6.33552856 -0.03040817 7.28238525 -0.0346933 8.25793457 -0.03910828 C10.26195475 -0.04485711 12.26599579 -0.04534778 14.27001953 -0.04101562 C17.34508639 -0.03785448 20.41919274 -0.06131207 23.49414062 -0.08666992 C25.43814982 -0.08894264 27.38216162 -0.08964654 29.32617188 -0.08862305 C30.25014771 -0.09783279 31.17412354 -0.10704254 32.12609863 -0.11653137 C32.98038452 -0.11030258 33.83467041 -0.10407379 34.71484375 -0.09765625 C35.4682605 -0.09828568 36.22167725 -0.0989151 36.9979248 -0.0995636 C38.85742188 0.2746582 38.85742188 0.2746582 40.85742188 3.2746582 C41.07803334 6.27330564 41.18547486 9.17672995 41.19335938 12.17700195 C41.20001617 13.05111221 41.20667297 13.92522247 41.21353149 14.82582092 C41.22365476 16.67422379 41.22834861 18.52266319 41.22802734 20.37109375 C41.23240042 23.19828507 41.2687219 26.02391502 41.30664062 28.85083008 C41.31250889 30.6470487 41.31647822 32.44327473 41.31835938 34.23950195 C41.33273041 35.08439682 41.34710144 35.92929169 41.36190796 36.79978943 C41.33393968 40.39439953 41.21193608 42.66062801 39.39331055 45.81054688 C35.58241497 48.01079149 32.14979798 47.80920381 27.82226562 47.7355957 C26.94719864 47.73467926 26.07213165 47.73376282 25.17054749 47.7328186 C23.3238481 47.72678542 21.47715837 47.71104784 19.63061523 47.6862793 C16.80155465 47.64974386 13.97380326 47.64526021 11.14453125 47.64575195 C9.34959804 47.63592153 7.55467371 47.62426485 5.75976562 47.6105957 C4.91284653 47.60837006 4.06592743 47.60614441 3.19334412 47.60385132 C-0.74240086 47.54009683 -2.79737949 47.50479063 -6.14257812 45.2746582 C-6.51679993 43.41516113 -6.51679993 43.41516113 -6.51489258 41.13208008 C-6.52112137 40.27779419 -6.52735016 39.4235083 -6.5337677 38.54333496 C-6.52455795 37.61935913 -6.51534821 36.6953833 -6.50585938 35.7434082 C-6.50660713 34.32312317 -6.50660713 34.32312317 -6.50737 32.87414551 C-6.50502708 30.87009587 -6.49528581 28.86604342 -6.47875977 26.86206055 C-6.45517346 23.78708705 -6.45819634 20.71298034 -6.46484375 17.63793945 C-6.45926705 15.69392384 -6.45215722 13.7499119 -6.44335938 11.8059082 C-6.44427078 10.88193237 -6.44518219 9.95795654 -6.44612122 9.00598145 C-6.4365892 8.15169556 -6.42705719 7.29740967 -6.41723633 6.41723633 C-6.41262894 5.66381958 -6.40802155 4.91040283 -6.40327454 4.13415527 C-5.84734378 0.16880874 -3.42641423 0.02095365 0 0 Z " fill="#0000FF" transform="translate(213.142578125,366.725341796875)"/>
<path d="M0 0 C0.85428589 -0.00630432 1.70857178 -0.01260864 2.58874512 -0.019104 C3.51272095 -0.01505554 4.43669678 -0.01100708 5.38867188 -0.00683594 C6.80895691 -0.00970612 6.80895691 -0.00970612 8.25793457 -0.01263428 C10.26196559 -0.01399667 12.26600542 -0.0102965 14.27001953 -0.00195312 C17.34492741 0.00874559 20.41925101 -0.00184666 23.49414062 -0.01464844 C25.43815234 -0.01332685 27.38216368 -0.01076448 29.32617188 -0.00683594 C30.71213562 -0.01290863 30.71213562 -0.01290863 32.12609863 -0.019104 C33.40752747 -0.00964752 33.40752747 -0.00964752 34.71484375 0 C35.4682605 0.00159119 36.22167725 0.00318237 36.9979248 0.00482178 C38.85742188 0.25878906 38.85742188 0.25878906 40.85742188 2.25878906 C41.12484741 4.07359314 41.12484741 4.07359314 41.14794922 6.29370117 C41.16070892 7.12473862 41.17346863 7.95577606 41.18661499 8.81199646 C41.18884064 9.71096146 41.19106628 10.60992645 41.19335938 11.53613281 C41.20001617 12.45842178 41.20667297 13.38071075 41.21353149 14.33094788 C41.2236672 16.28368125 41.22834823 18.23644933 41.22802734 20.18920898 C41.23239965 23.18108034 41.26870666 26.1714759 41.30664062 29.16308594 C41.3125087 31.05826317 41.31647815 32.95344743 41.31835938 34.84863281 C41.33273041 35.74557358 41.34710144 36.64251434 41.36190796 37.56663513 C41.31732499 43.61069147 41.31732499 43.61069147 39.39331055 46.32202148 C35.5410568 47.74505967 31.89885679 47.68652711 27.82226562 47.65722656 C26.50966515 47.66153183 26.50966515 47.66153183 25.17054749 47.66592407 C23.3238968 47.66796253 21.47722442 47.6624479 19.63061523 47.64990234 C16.80143111 47.63382605 13.97367137 47.64976804 11.14453125 47.66894531 C9.34960622 47.66696322 7.55468207 47.66312025 5.75976562 47.65722656 C4.48938698 47.6663356 4.48938698 47.6663356 3.19334412 47.67562866 C-2.67017449 47.6052354 -2.67017449 47.6052354 -4.86611938 45.99479675 C-6.43832364 43.85656965 -6.51715454 42.73021364 -6.51489258 40.09448242 C-6.52112137 39.26029282 -6.52735016 38.42610321 -6.5337677 37.56663513 C-6.52455795 36.66969437 -6.51534821 35.7727536 -6.50585938 34.84863281 C-6.50635788 33.92538712 -6.50685638 33.00214142 -6.50737 32.05091858 C-6.50502992 30.09992316 -6.49530529 28.14892471 -6.47875977 26.19799805 C-6.45514146 23.20431679 -6.45820245 20.21152433 -6.46484375 17.21777344 C-6.45926793 15.3238879 -6.45215866 13.43000612 -6.44335938 11.53613281 C-6.44427078 10.63716782 -6.44518219 9.73820282 -6.44612122 8.81199646 C-6.4365892 7.98095901 -6.42705719 7.14992157 -6.41723633 6.29370117 C-6.41262894 5.56106552 -6.40802155 4.82842987 -6.40327454 4.07359314 C-5.83706101 0.13197152 -3.39480056 0.00716969 0 0 Z " fill="#0000FF" transform="translate(139.142578125,366.7412109375)"/>
<path d="M0 0 C1.25128441 -0.00934319 1.25128441 -0.00934319 2.52784729 -0.01887512 C3.87325844 -0.0050605 3.87325844 -0.0050605 5.24584961 0.0090332 C6.63071815 0.00828545 6.63071815 0.00828545 8.04356384 0.00752258 C9.99455926 0.00986266 11.94555771 0.01958728 13.89648438 0.03613281 C16.89016564 0.05975112 19.88295809 0.05669013 22.87670898 0.05004883 C24.77059452 0.05562464 26.6644763 0.06273392 28.55834961 0.0715332 C29.9067971 0.07016609 29.9067971 0.07016609 31.28248596 0.06877136 C32.11352341 0.07830338 32.94456085 0.08783539 33.80078125 0.09765625 C34.5334169 0.10226364 35.26605255 0.10687103 36.02088928 0.11161804 C37.83569336 0.37231445 37.83569336 0.37231445 39.83569336 2.37231445 C40.09638977 4.23181152 40.09638977 4.23181152 40.11035156 6.51489258 C40.12464958 7.79632141 40.12464958 7.79632141 40.13923645 9.1036377 C40.13832504 10.02761353 40.13741364 10.95158936 40.13647461 11.90356445 C40.14075974 12.85042114 40.14504486 13.79727783 40.14945984 14.77282715 C40.15520867 16.77684732 40.15569934 18.78088837 40.15136719 20.78491211 C40.14820604 23.85997897 40.17166363 26.93408532 40.19702148 30.0090332 C40.19929421 31.9530424 40.1999981 33.8970542 40.19897461 35.84106445 C40.20818436 36.76504028 40.2173941 37.68901611 40.22688293 38.64099121 C40.22065414 39.4952771 40.21442535 40.34956299 40.20800781 41.22973633 C40.20863724 41.98315308 40.20926666 42.73656982 40.20991516 43.51281738 C39.83569336 45.37231445 39.83569336 45.37231445 36.83569336 47.37231445 C34.93859863 47.63301086 34.93859863 47.63301086 32.77905273 47.64697266 C31.56264099 47.66127068 31.56264099 47.66127068 30.32165527 47.67585754 C29.01376038 47.67449043 29.01376038 47.67449043 27.67944336 47.6730957 C26.78076538 47.67738083 25.8820874 47.68166595 24.95617676 47.68608093 C23.05648644 47.69182289 21.15677413 47.69232548 19.25708008 47.68798828 C16.34670655 47.68482642 13.43734757 47.70829542 10.52709961 47.73364258 C8.68204881 47.73591535 6.83699527 47.73661917 4.99194336 47.7355957 C4.12001343 47.74480545 3.2480835 47.7540152 2.34973145 47.76350403 C1.53879028 47.75727524 0.72784912 47.75104645 -0.10766602 47.74462891 C-1.17664124 47.74557304 -1.17664124 47.74557304 -2.26721191 47.74653625 C-4.78421561 47.25003092 -5.65547588 46.426805 -7.16430664 44.37231445 C-7.54525757 42.47521973 -7.54525757 42.47521973 -7.55249023 40.31567383 C-7.56194672 39.50473267 -7.5714032 38.6937915 -7.58114624 37.85827637 C-7.57507355 36.98634644 -7.56900085 36.1144165 -7.56274414 35.21606445 C-7.56561432 34.31738647 -7.5684845 33.4187085 -7.57144165 32.49279785 C-7.57348279 30.59309255 -7.56794942 28.69336625 -7.55541992 26.79370117 C-7.53936685 23.88323036 -7.55526677 20.97414824 -7.57446289 18.0637207 C-7.57248047 16.21866555 -7.56863681 14.37361126 -7.56274414 12.52856445 C-7.56881683 11.65663452 -7.57488953 10.78470459 -7.58114624 9.88635254 C-7.57168976 9.07541138 -7.56223328 8.26447021 -7.55249023 7.42895508 C-7.55010345 6.71630493 -7.54771667 6.00365479 -7.54525757 5.26940918 C-6.68952257 1.00794074 -4.02913926 -0.00345778 0 0 Z " fill="#0000FF" transform="translate(361.164306640625,231.627685546875)"/>
<path d="M0 0 C0.83103745 -0.00953201 1.66207489 -0.01906403 2.51829529 -0.02888489 C3.41726028 -0.02797348 4.31622528 -0.02706207 5.24243164 -0.02612305 C6.16472061 -0.03040817 7.08700958 -0.0346933 8.0372467 -0.03910828 C9.98999205 -0.04485738 11.94275881 -0.04534758 13.89550781 -0.04101562 C16.88717124 -0.03785807 19.87784388 -0.06129909 22.86938477 -0.08666992 C24.76456581 -0.08894305 26.65974951 -0.08964635 28.55493164 -0.08862305 C29.45187241 -0.09783279 30.34881317 -0.10704254 31.27293396 -0.11653137 C32.10712357 -0.11030258 32.94131317 -0.10407379 33.80078125 -0.09765625 C34.53421249 -0.09828568 35.26764374 -0.0989151 36.02330017 -0.0995636 C38.56912937 0.39106922 39.44179867 1.1975476 40.96508789 3.2746582 C41.26364232 6.3118393 41.38530502 9.13953813 41.36352539 12.17700195 C41.36639557 13.05111221 41.36926575 13.92522247 41.3722229 14.82582092 C41.37426408 16.67425179 41.36873045 18.52270422 41.35620117 20.37109375 C41.34016725 23.19816544 41.35603779 26.0238033 41.37524414 28.85083008 C41.37326134 30.64705719 41.3694169 32.44328341 41.36352539 34.23950195 C41.37263443 35.50684425 41.37263443 35.50684425 41.38192749 36.79978943 C41.34261055 40.08786214 41.17388823 42.71883834 40.01245117 45.81054688 C36.57779595 48.26673902 32.91829594 47.80332724 28.80883789 47.7355957 C27.91015991 47.73467926 27.01148193 47.73376282 26.08557129 47.7328186 C24.18581866 47.7267775 22.28607579 47.7110162 20.38647461 47.6862793 C17.4761247 47.64979656 14.5670487 47.64525972 11.65649414 47.64575195 C9.81143104 47.63591989 7.96637657 47.6242625 6.12133789 47.6105957 C4.81344299 47.60725723 4.81344299 47.60725723 3.47912598 47.60385132 C2.66818481 47.59109161 1.85724365 47.57833191 1.02172852 47.56518555 C0.30907837 47.55756195 -0.40357178 47.54993835 -1.13781738 47.54208374 C-3.03491211 47.2746582 -3.03491211 47.2746582 -6.03491211 45.2746582 C-6.40913391 43.41516113 -6.40913391 43.41516113 -6.40722656 41.13208008 C-6.41345535 40.27779419 -6.41968414 39.4235083 -6.42610168 38.54333496 C-6.41689194 37.61935913 -6.40768219 36.6953833 -6.39819336 35.7434082 C-6.39894112 34.32312317 -6.39894112 34.32312317 -6.39970398 32.87414551 C-6.39736106 30.87009587 -6.38761979 28.86604342 -6.37109375 26.86206055 C-6.34750744 23.78708705 -6.35053033 20.71298034 -6.35717773 17.63793945 C-6.35160103 15.69392384 -6.34449121 13.7499119 -6.33569336 11.8059082 C-6.33660477 10.88193237 -6.33751617 9.95795654 -6.3384552 9.00598145 C-6.32892319 8.15169556 -6.31939117 7.29740967 -6.30957031 6.41723633 C-6.30496292 5.66381958 -6.30035553 4.91040283 -6.29560852 4.13415527 C-5.74737035 0.22367842 -3.3936874 0.02134219 0 0 Z " fill="#0000FF" transform="translate(213.034912109375,231.725341796875)"/>
<path d="M0 0 C1.69974976 0.00157104 1.69974976 0.00157104 3.43383789 0.00317383 C5.23776001 0.02287231 5.23776001 0.02287231 7.078125 0.04296875 C8.29556396 0.05158936 9.51300293 0.06020996 10.76733398 0.0690918 C31.61373157 0.27593159 31.61373157 0.27593159 36.328125 1.23046875 C38.40996816 4.35323348 38.56895627 4.91078753 38.46337891 8.42651367 C38.44320709 9.26715866 38.42303528 10.10780365 38.4022522 10.97392273 C38.35395767 12.32874504 38.35395767 12.32874504 38.3046875 13.7109375 C38.26714859 15.10292107 38.26714859 15.10292107 38.22885132 16.52302551 C38.1466481 19.48837799 38.05005963 22.45306479 37.953125 25.41796875 C37.89488578 27.42770714 37.83758249 29.43747289 37.78125 31.44726562 C37.6410687 36.3753832 37.48798418 41.30295182 37.328125 46.23046875 C33.2509958 48.5017074 29.59849791 48.53664885 25.01953125 48.53125 C24.21579575 48.53553513 23.41206024 48.53982025 22.58396912 48.54423523 C20.88696228 48.54996867 19.18993088 48.55048605 17.49291992 48.54614258 C14.90305456 48.54298391 12.31433349 48.56644844 9.72460938 48.59179688 C8.0729181 48.59407018 6.42122377 48.59477322 4.76953125 48.59375 C3.99855606 48.60295975 3.22758087 48.61216949 2.4332428 48.62165833 C-0.78290683 48.59412116 -3.58631532 48.2568163 -6.66235352 47.30957031 C-9.44224166 44.43342799 -9.27277789 42.28995357 -9.31530762 38.385849 C-9.29891235 37.46703445 -9.28251709 36.54821991 -9.265625 35.6015625 C-9.26566528 34.65612076 -9.26570557 33.71067902 -9.26574707 32.73658752 C-9.26038601 30.73846792 -9.24277829 28.74034927 -9.21386719 26.74243164 C-9.17198392 23.67594347 -9.17279875 20.61164795 -9.1796875 17.54492188 C-9.16919647 15.60545342 -9.15625884 13.66599632 -9.140625 11.7265625 C-9.14042358 10.80572372 -9.14022217 9.88488495 -9.14001465 8.93614197 C-9.12410278 8.08508377 -9.10819092 7.23402557 -9.09179688 6.35717773 C-9.08337769 5.60677719 -9.0749585 4.85637665 -9.06628418 4.08323669 C-8.09522341 -0.47839716 -3.75329786 -0.01511992 0 0 Z " fill="#0000FF" transform="translate(215.671875,298.76953125)"/>
<path d="M0 0 C1.56947388 0.029729 1.56947388 0.029729 3.1706543 0.06005859 C4.34063965 0.07842773 5.510625 0.09679687 6.71606445 0.11572266 C7.96307129 0.14633789 9.21007812 0.17695313 10.49487305 0.20849609 C12.35184814 0.24281738 12.35184814 0.24281738 14.24633789 0.27783203 C18.05929019 0.35738107 21.87038464 0.46698091 25.68237305 0.58349609 C26.99012695 0.61443359 28.29788086 0.64537109 29.64526367 0.67724609 C30.88856445 0.71591797 32.13186523 0.75458984 33.4128418 0.79443359 C34.53456787 0.82585449 35.65629395 0.85727539 36.81201172 0.88964844 C39.49487305 1.20849609 39.49487305 1.20849609 41.49487305 3.20849609 C41.74884033 5.0300293 41.74884033 5.0300293 41.75366211 7.25927734 C41.75996643 8.09354248 41.76627075 8.92780762 41.77276611 9.78735352 C41.76871765 10.68945557 41.76466919 11.59155762 41.76049805 12.52099609 C41.76336823 13.90798706 41.76336823 13.90798706 41.76629639 15.32299805 C41.76765871 17.27995068 41.76395901 19.23691234 41.75561523 21.19384766 C41.74491639 24.19633199 41.75550896 27.19821796 41.76831055 30.20068359 C41.76698896 32.09912242 41.76442659 33.99756087 41.76049805 35.89599609 C41.76454651 36.79809814 41.76859497 37.7002002 41.77276611 38.62963867 C41.76646179 39.46390381 41.76015747 40.29816895 41.75366211 41.15771484 C41.75207092 41.8933667 41.75047974 42.62901855 41.74884033 43.38696289 C41.49487305 45.20849609 41.49487305 45.20849609 39.49487305 47.20849609 C35.6278378 48.67264531 31.44865406 48.38863928 27.36987305 48.41162109 C26.58596191 48.41732117 25.80205078 48.42302124 24.99438477 48.42889404 C23.3402643 48.43832052 21.68612524 48.44486866 20.03198242 48.44873047 C17.50365626 48.45846229 14.97613452 48.48951735 12.44799805 48.52099609 C10.83862786 48.52752425 9.22925188 48.53277546 7.61987305 48.53662109 C6.86561035 48.5489679 6.11134766 48.5613147 5.33422852 48.57403564 C2.35572386 48.56140193 -0.18280837 48.32794506 -2.98413086 47.28979492 C-5.57252672 43.74788887 -5.0327334 39.84208104 -4.96606445 35.57958984 C-4.96514801 34.6341481 -4.96423157 33.68870636 -4.96328735 32.71461487 C-4.9572459 30.71651182 -4.94148361 28.71841806 -4.91674805 26.72045898 C-4.88022568 23.65428486 -4.87572871 20.58931817 -4.8762207 17.52294922 C-4.8663904 15.5834856 -4.85473377 13.6440302 -4.84106445 11.70458984 C-4.83883881 10.78375107 -4.83661316 9.86291229 -4.83432007 8.91416931 C-4.82156036 8.06311111 -4.80880066 7.21205292 -4.7956543 6.33520508 C-4.7880307 5.58480453 -4.7804071 4.83440399 -4.77255249 4.06126404 C-4.31879362 0.91754823 -3.0380082 0.2528466 0 0 Z " fill="#0000FF" transform="translate(285.505126953125,298.79150390625)"/>
<path d="M0 0 C2.75457457 -0.27926386 5.2813946 -0.37205304 8.03515625 -0.328125 C9.22594032 -0.32531525 9.22594032 -0.32531525 10.44078064 -0.32244873 C12.11949867 -0.31572268 13.79820088 -0.30179715 15.47680664 -0.28125 C18.05564828 -0.25008281 20.63387931 -0.24027944 23.21289062 -0.234375 C24.84115334 -0.22520581 26.4694098 -0.2148303 28.09765625 -0.203125 C28.87367691 -0.19887512 29.64969757 -0.19462524 30.44923401 -0.19024658 C35.88284566 -0.11715434 35.88284566 -0.11715434 37 1 C36.93435936 2.50376737 36.79578008 4.00452042 36.625 5.5 C36.48964844 6.72203125 36.48964844 6.72203125 36.3515625 7.96875 C36.1616055 9.60660149 35.96584479 11.24403837 35.73730469 12.87695312 C34.84189814 19.75544721 34.92304065 26.57365832 35 33.5 C35.02536478 35.84370534 35.04644666 38.18746239 35.0625 40.53125 C35.07410156 41.55798828 35.08570313 42.58472656 35.09765625 43.64257812 C35 46 35 46 34 47 C29.49460472 47.24299754 24.98364051 47.22853842 20.47241211 47.24023438 C18.20714266 47.24991605 15.9427897 47.28091409 13.67773438 47.3125 C12.23698456 47.31903233 10.79622825 47.3242819 9.35546875 47.328125 C7.38549927 47.34214355 7.38549927 47.34214355 5.37573242 47.35644531 C2 47 2 47 -0.4309082 46.05175781 C-3.0342099 42.64765832 -2.52951995 39.00483525 -2.4609375 34.84375 C-2.46002106 33.94507202 -2.45910461 33.04639404 -2.4581604 32.1204834 C-2.45211929 30.22073077 -2.43635799 28.32098789 -2.41162109 26.42138672 C-2.37513835 23.51103681 -2.37060152 20.60196081 -2.37109375 17.69140625 C-2.36126169 15.84634315 -2.3496043 14.00128868 -2.3359375 12.15625 C-2.33371185 11.28432007 -2.33148621 10.41239014 -2.32919312 9.51403809 C-2.31643341 8.70309692 -2.30367371 7.89215576 -2.29052734 7.05664062 C-2.28290375 6.34399048 -2.27528015 5.63134033 -2.26742554 4.89709473 C-2 3 -2 3 0 0 Z " fill="#0000FF" transform="translate(282,367)"/>
<path d="M0 0 C3.70390021 2.02666238 5.65363011 3.48044516 8 7 C8.73379382 15.74908022 6.71243643 24.30872949 5.125 32.875 C4.85214655 34.37877614 4.58000627 35.88268187 4.30859375 37.38671875 C3.78552021 40.28028369 3.2555176 43.17243992 2.7199707 46.0637207 C2.26914085 48.50527664 1.84007877 50.94679633 1.42651367 53.39526367 C1.17865112 54.856698 1.17865112 54.856698 0.92578125 56.34765625 C0.79083252 57.17273682 0.65588379 57.99781738 0.5168457 58.84790039 C-0.60843543 63.53347112 -2.99603502 66.33069001 -7 69 C-11.81540624 69.47364652 -14.05114955 69.49199653 -18.375 67.25 C-20.92166289 65.06714609 -21.83887678 64.04520996 -23 61 C-23.40891245 52.93079426 -21.23757745 44.72048722 -19.58349609 36.86621094 C-18.67327893 32.51186264 -17.8444449 28.17348284 -17.2109375 23.76953125 C-17.02893799 22.50508179 -17.02893799 22.50508179 -16.84326172 21.21508789 C-16.62198937 19.62605025 -16.41181978 18.0354075 -16.21533203 16.44311523 C-15.4855838 11.22823982 -14.17986426 6.29358483 -11 2 C-7.29226327 -0.31310073 -4.3459579 -0.44958185 0 0 Z " fill="#0000FF" transform="translate(405,105)"/>
<path d="M0 0 C3.70390021 2.02666238 5.65363011 3.48044516 8 7 C9.05663772 14.72100946 7.19168101 22.52449593 5.6875 30.0625 C5.22295187 32.45292963 4.75940954 34.84355494 4.296875 37.234375 C3.95946289 38.9659082 3.95946289 38.9659082 3.61523438 40.73242188 C3.07663377 43.59298956 2.5883865 46.45220414 2.140625 49.328125 C1.95753784 50.48429321 1.95753784 50.48429321 1.77075195 51.66381836 C1.46177249 53.65600021 1.16587277 55.65019874 0.87109375 57.64453125 C-0.46195717 62.77946732 -2.58899927 66.05933285 -7 69 C-11.81540624 69.47364652 -14.05114955 69.49199653 -18.375 67.25 C-20.91898849 65.06943844 -21.84533585 64.04514368 -23 61 C-23.20742669 52.94155723 -21.14463068 44.6857783 -19.625 36.8125 C-19.16882637 34.42977255 -18.71309551 32.04696029 -18.2578125 29.6640625 C-18.03899414 28.52227539 -17.82017578 27.38048828 -17.59472656 26.20410156 C-17.08162903 23.43977809 -16.61303052 20.67613231 -16.1796875 17.8984375 C-16.06157715 17.17164795 -15.9434668 16.4448584 -15.82177734 15.69604492 C-15.5252087 13.84485352 -15.24615996 11.99087794 -14.96875 10.13671875 C-13.70934722 6.05889443 -11.94351119 4.0752424 -9 1 C-5.89046621 -0.5547669 -3.43733239 -0.28644437 0 0 Z " fill="#0000FF" transform="translate(304,105)"/>
<path d="M0 0 C3.70390021 2.02666238 5.65363011 3.48044516 8 7 C9.38833359 15.82975589 6.74160793 25.26345248 5.125 33.9375 C4.85206353 35.43670334 4.57992317 36.93605185 4.30859375 38.43554688 C3.78607662 41.31855316 3.25505167 44.19978902 2.71777344 47.08007812 C2.27238813 49.5124273 1.84505596 51.9482466 1.44628906 54.38867188 C1.28612305 55.36255859 1.12595703 56.33644531 0.9609375 57.33984375 C0.83251465 58.16476318 0.7040918 58.98968262 0.57177734 59.83959961 C-0.39385649 63.4881452 -2.290421 65.42589995 -5 68 C-8.198543 69.5992715 -11.52101629 69.36127908 -15 69 C-18.42945937 67.62821625 -19.72964835 66.37849231 -21.875 63.375 C-22.94392741 60.16821776 -23.07683448 59.04667611 -22.66552734 55.85961914 C-22.56342957 55.06468048 -22.46133179 54.26974182 -22.35614014 53.45071411 C-21.79343976 49.578593 -21.15953195 45.72373749 -20.4765625 41.87109375 C-20.32972015 41.03715591 -20.18287781 40.20321808 -20.03158569 39.3440094 C-19.72220694 37.59502163 -19.41120317 35.84632059 -19.09863281 34.09790039 C-18.62583668 31.44219963 -18.16435759 28.78468327 -17.703125 26.12695312 C-17.39913177 24.41654313 -17.0944668 22.70625236 -16.7890625 20.99609375 C-16.65456696 20.21254013 -16.52007141 19.42898651 -16.38150024 18.62168884 C-15.26392006 12.48026751 -14.01802101 6.24224557 -9.75 1.5 C-6.15325313 -0.46186193 -4.04963527 -0.56836986 0 0 Z " fill="#0000FF" transform="translate(203,105)"/>
<path d="M0 0 C3.48691558 2.46989854 4.75485912 3.92721281 5.70800781 8.09838867 C6.05450692 12.72832371 5.48813678 16.75344329 4.671875 21.30078125 C4.52220276 22.17719772 4.37253052 23.0536142 4.21832275 23.95658875 C3.90047834 25.80389249 3.57744288 27.65030976 3.24951172 29.49584961 C2.75374297 32.29139414 2.27595781 35.0895619 1.80078125 37.88867188 C1.48804563 39.69289351 1.17427646 41.49693637 0.859375 43.30078125 C0.71860535 44.12403397 0.57783569 44.94728668 0.43280029 45.79548645 C-2.66245756 63.03988787 -2.66245756 63.03988787 -8 67 C-11.10953379 68.5547669 -13.56266761 68.28644437 -17 68 C-20.99388896 65.89002093 -23.38847408 64.23121023 -25 60 C-25.53445881 49.77402148 -22.45819832 38.93885613 -20.54394531 28.93847656 C-19.99868353 25.99288821 -19.50493117 23.0425636 -19.0234375 20.0859375 C-18.86206299 19.13775146 -18.70068848 18.18956543 -18.53442383 17.21264648 C-18.22743158 15.4073796 -17.93480895 13.59959022 -17.65893555 11.78930664 C-16.7097502 6.39217607 -15.47179427 3.53404711 -11 0 C-7.47928076 -1.76035962 -3.72637255 -0.92676623 0 0 Z " fill="#0000FF" transform="translate(155,106)"/>
<path d="M0 0 C3.22551858 2.35194063 4.69164201 3.80507199 5.69213867 7.68212891 C6.05293332 11.57047092 5.5948429 15.08306974 4.92578125 18.8984375 C4.80067673 19.65105865 4.6755722 20.40367981 4.54667664 21.17910767 C4.27968464 22.77172506 4.00792295 24.36354932 3.73168945 25.95458984 C3.32009516 28.33114537 2.925387 30.71001757 2.53320312 33.08984375 C1.25017174 40.74303784 -0.18977615 48.35693319 -1.95703125 55.9140625 C-2.25198486 57.18459473 -2.54693848 58.45512695 -2.85083008 59.76416016 C-4.2980771 63.83932736 -6.13397866 66.06698933 -10 68 C-14.98109259 68.37593152 -18.05673864 68.1765161 -22 65 C-26.98318331 58.14572221 -24.52187976 50.25182116 -23.29785156 42.38720703 C-22.61077073 38.14504415 -21.8654851 33.91468377 -21.09863281 29.6862793 C-20.62179321 27.04473539 -20.16201406 24.40057374 -19.703125 21.75585938 C-19.39945843 20.05710885 -19.09480633 18.35853414 -18.7890625 16.66015625 C-18.65456696 15.87882828 -18.52007141 15.09750031 -18.38150024 14.29249573 C-17.372268 8.84068605 -16.11244277 3.92605076 -11.875 0.0625 C-7.70805543 -1.47745778 -4.24286713 -1.25287562 0 0 Z " fill="#0000FF" transform="translate(357,106)"/>
<path d="M0 0 C3.22551858 2.35194063 4.69164201 3.80507199 5.69213867 7.68212891 C6.05293332 11.57047092 5.5948429 15.08306974 4.92578125 18.8984375 C4.80067673 19.65105865 4.6755722 20.40367981 4.54667664 21.17910767 C4.27968464 22.77172506 4.00792295 24.36354932 3.73168945 25.95458984 C3.32009516 28.33114537 2.925387 30.71001757 2.53320312 33.08984375 C1.25017174 40.74303784 -0.18977615 48.35693319 -1.95703125 55.9140625 C-2.25198486 57.18459473 -2.54693848 58.45512695 -2.85083008 59.76416016 C-4.2980771 63.83932736 -6.13397866 66.06698933 -10 68 C-14.23390162 68.40710593 -16.51588352 68.25575965 -20.3125 66.25 C-22.9335532 64.05562988 -23.84148465 63.10623917 -25 60 C-25.37774516 49.9490731 -22.8844422 39.53318789 -21.09863281 29.6862793 C-20.62179321 27.04473539 -20.16201406 24.40057374 -19.703125 21.75585938 C-19.39945843 20.05710885 -19.09480633 18.35853414 -18.7890625 16.66015625 C-18.65456696 15.87882828 -18.52007141 15.09750031 -18.38150024 14.29249573 C-17.372268 8.84068605 -16.11244277 3.92605076 -11.875 0.0625 C-7.70805543 -1.47745778 -4.24286713 -1.25287562 0 0 Z " fill="#0000FF" transform="translate(256,106)"/>
<path d="M0 0 C1.27617187 0.02320313 2.55234375 0.04640625 3.8671875 0.0703125 C5.78917969 0.09738281 5.78917969 0.09738281 7.75 0.125 C9.23113281 0.15980469 9.23113281 0.15980469 10.7421875 0.1953125 C10.7421875 1.1853125 10.7421875 2.1753125 10.7421875 3.1953125 C9.1328125 4.4765625 9.1328125 4.4765625 6.9921875 5.6953125 C4.63631913 7.06403884 2.59207947 8.32040253 0.4921875 10.0703125 C-1.2578125 11.1953125 -1.2578125 11.1953125 -3.5078125 10.8828125 C-4.0853125 10.6559375 -4.6628125 10.4290625 -5.2578125 10.1953125 C-5.453125 4.140625 -5.453125 4.140625 -5.2578125 2.1953125 C-3.2578125 0.1953125 -3.2578125 0.1953125 0 0 Z " fill="#0000FF" transform="translate(359.2578125,299.8046875)"/>
<path d="M0 0 C8.25 0 16.5 0 25 0 C25 0.33 25 0.66 25 1 C16.75 1 8.5 1 0 1 C0 0.67 0 0.34 0 0 Z " fill="#0000FF" transform="translate(290,604)"/>
<path d="M0 0 C0.66 0.33 1.32 0.66 2 1 C-1.96 4.96 -5.92 8.92 -10 13 C-10 10 -10 10 -7.8125 7.51953125 C-6.884375 6.62621094 -5.95625 5.73289062 -5 4.8125 C-4.071875 3.91144531 -3.14375 3.01039062 -2.1875 2.08203125 C-1.1046875 1.05142578 -1.1046875 1.05142578 0 0 Z " fill="#0000FF" transform="translate(94,83)"/>
<path d="M0 0 C3.3 0 6.6 0 10 0 C10 0.33 10 0.66 10 1 C6.7 1 3.4 1 0 1 C0 0.67 0 0.34 0 0 Z " fill="#0000FF" transform="translate(276,603)"/>
<path d="M0 0 C0.66 0 1.32 0 2 0 C2 1.65 2 3.3 2 5 C1.34 5 0.68 5 0 5 C0 3.35 0 1.7 0 0 Z " fill="#0000FF" transform="translate(380,372)"/>
<path d="M0 0 C2.31 0 4.62 0 7 0 C7 0.33 7 0.66 7 1 C4.69 1 2.38 1 0 1 C0 0.67 0 0.34 0 0 Z " fill="#0000FF" transform="translate(266,602)"/>
<path d="M0 0 C1.98 0 3.96 0 6 0 C6 0.33 6 0.66 6 1 C4.02 1 2.04 1 0 1 C0 0.67 0 0.34 0 0 Z " fill="#0000FF" transform="translate(259,601)"/>
<path d="M0 0 C0 0.99 0 1.98 0 3 C-0.99 3.495 -0.99 3.495 -2 4 C-1.34 2.68 -0.68 1.36 0 0 Z " fill="#0000FF" transform="translate(528,502)"/>
<path d="M0 0 C0 0.99 0 1.98 0 3 C-0.99 3.495 -0.99 3.495 -2 4 C-1.34 2.68 -0.68 1.36 0 0 Z " fill="#0000FF" transform="translate(534,495)"/>
<path d="M0 0 C0 0.99 0 1.98 0 3 C-0.99 3.495 -0.99 3.495 -2 4 C-1.34 2.68 -0.68 1.36 0 0 Z " fill="#0000FF" transform="translate(76,102)"/>
<path d="M0 0 C0.66 0.33 1.32 0.66 2 1 C0.02 1.99 0.02 1.99 -2 3 C-1.34 2.01 -0.68 1.02 0 0 Z " fill="#0000FF" transform="translate(104,74)"/>
<path d="M0 0 C1.65 0 3.3 0 5 0 C5 0.33 5 0.66 5 1 C3.35 1 1.7 1 0 1 C0 0.67 0 0.34 0 0 Z " fill="#0000FF" transform="translate(247,599)"/>
<path d="M0 0 C4 1 4 1 4 1 Z " fill="#0000FF" transform="translate(253,600)"/>
<path d="M0 0 C4 1 4 1 4 1 Z " fill="#0000FF" transform="translate(242,598)"/>
<path d="M0 0 C4 1 4 1 4 1 Z " fill="#0000FF" transform="translate(237,597)"/>
<path d="M0 0 C4 1 4 1 4 1 Z " fill="#0000FF" transform="translate(233,596)"/>
<path d="M0 0 C0 3 0 3 0 3 Z " fill="#0000FF" transform="translate(538,490)"/>
<path d="M0 0 C0 3 0 3 0 3 Z " fill="#0000FF" transform="translate(545,481)"/>
<path d="M0 0 C0 3 0 3 0 3 Z " fill="#0000FF" transform="translate(552,471)"/>
<path d="M0 0 C0 3 0 3 0 3 Z " fill="#0000FF" transform="translate(554,468)"/>
<path d="M0 0 C0 3 0 3 0 3 Z " fill="#0000FF" transform="translate(561,457)"/>
<path d="M0 0 C0 3 0 3 0 3 Z " fill="#0000FF" transform="translate(565,450)"/>
<path d="M0 0 C0 3 0 3 0 3 Z " fill="#0000FF" transform="translate(57,126)"/>
<path d="M0 0 C0 3 0 3 0 3 Z " fill="#0000FF" transform="translate(62,119)"/>
<path d="M0 0 C0 3 0 3 0 3 Z " fill="#0000FF" transform="translate(66,114)"/>
<path d="M0 0 C0 3 0 3 0 3 Z " fill="#0000FF" transform="translate(69,110)"/>
<path d="M0 0 C0.66 0.33 1.32 0.66 2 1 C1.01 1 0.02 1 -1 1 C-0.67 0.67 -0.34 0.34 0 0 Z " fill="#0000FF" transform="translate(111,68)"/>
<path d="M0 0 C0.66 0.33 1.32 0.66 2 1 C1.01 1 0.02 1 -1 1 C-0.67 0.67 -0.34 0.34 0 0 Z " fill="#0000FF" transform="translate(115,65)"/>
<path d="M0 0 C0.66 0.33 1.32 0.66 2 1 C1.01 1 0.02 1 -1 1 C-0.67 0.67 -0.34 0.34 0 0 Z " fill="#0000FF" transform="translate(120,61)"/>
<path d="M0 0 C0.66 0.33 1.32 0.66 2 1 C1.01 1 0.02 1 -1 1 C-0.67 0.67 -0.34 0.34 0 0 Z " fill="#0000FF" transform="translate(127,56)"/>
<path d="M0 0 C3 1 3 1 3 1 Z " fill="#0000FF" transform="translate(229,595)"/>
<path d="M0 0 C3 1 3 1 3 1 Z " fill="#0000FF" transform="translate(225,594)"/>
<path d="M0 0 C3 1 3 1 3 1 Z " fill="#0000FF" transform="translate(221,593)"/>
<path d="M0 0 C3 1 3 1 3 1 Z " fill="#0000FF" transform="translate(218,592)"/>
<path d="M0 0 C3 1 3 1 3 1 Z " fill="#0000FF" transform="translate(214,591)"/>
<path d="M0 0 C3 1 3 1 3 1 Z " fill="#0000FF" transform="translate(211,590)"/>
<path d="M0 0 C3 1 3 1 3 1 Z " fill="#0000FF" transform="translate(208,589)"/>
<path d="M0 0 C3 1 3 1 3 1 Z " fill="#0000FF" transform="translate(205,588)"/>
<path d="M0 0 C3 1 3 1 3 1 Z " fill="#0000FF" transform="translate(202,587)"/>
<path d="M0 0 C3 1 3 1 3 1 Z " fill="#0000FF" transform="translate(199,586)"/>
<path d="M0 0 C2 1 2 1 2 1 Z " fill="#0000FF" transform="translate(197,585)"/>
<path d="M0 0 C2 1 2 1 2 1 Z " fill="#0000FF" transform="translate(194,584)"/>
<path d="M0 0 C2 1 2 1 2 1 Z " fill="#0000FF" transform="translate(192,583)"/>
<path d="M0 0 C2 1 2 1 2 1 Z " fill="#0000FF" transform="translate(189,582)"/>
<path d="M0 0 C2 1 2 1 2 1 Z " fill="#0000FF" transform="translate(187,581)"/>
<path d="M0 0 C2 1 2 1 2 1 Z " fill="#0000FF" transform="translate(184,580)"/>
<path d="M0 0 C2 1 2 1 2 1 Z " fill="#0000FF" transform="translate(182,579)"/>
<path d="M0 0 C2 1 2 1 2 1 Z " fill="#0000FF" transform="translate(180,578)"/>
<path d="M0 0 C2 1 2 1 2 1 Z " fill="#0000FF" transform="translate(178,577)"/>
<path d="M0 0 C2 1 2 1 2 1 Z " fill="#0000FF" transform="translate(175,576)"/>
<path d="M0 0 C2 1 2 1 2 1 Z " fill="#0000FF" transform="translate(173,575)"/>
<path d="" fill="#0000FF" transform="translate(0,0)"/>
<path d="" fill="#0000FF" transform="translate(0,0)"/>
<path d="" fill="#0000FF" transform="translate(0,0)"/>
<path d="" fill="#0000FF" transform="translate(0,0)"/>
<path d="" fill="#0000FF" transform="translate(0,0)"/>
<path d="" fill="#0000FF" transform="translate(0,0)"/>
<path d="" fill="#0000FF" transform="translate(0,0)"/>
<path d="" fill="#0000FF" transform="translate(0,0)"/>
<path d="" fill="#0000FF" transform="translate(0,0)"/>
<path d="" fill="#0000FF" transform="translate(0,0)"/>
<path d="" fill="#0000FF" transform="translate(0,0)"/>
<path d="" fill="#0000FF" transform="translate(0,0)"/>
<path d="" fill="#0000FF" transform="translate(0,0)"/>
<path d="" fill="#0000FF" transform="translate(0,0)"/>
<path d="" fill="#0000FF" transform="translate(0,0)"/>
<path d="" fill="#0000FF" transform="translate(0,0)"/>
<path d="" fill="#0000FF" transform="translate(0,0)"/>
<path d="" fill="#0000FF" transform="translate(0,0)"/>
<path d="M0 0 C2 1 2 1 2 1 Z " fill="#0000FF" transform="translate(123,59)"/>
<path d="M0 0 C2 1 2 1 2 1 Z " fill="#0000FF" transform="translate(130,54)"/>
<path d="" fill="#0000FF" transform="translate(0,0)"/>
<path d="" fill="#0000FF" transform="translate(0,0)"/>
<path d="" fill="#0000FF" transform="translate(0,0)"/>
<path d="" fill="#0000FF" transform="translate(0,0)"/>
<path d="" fill="#0000FF" transform="translate(0,0)"/>
<path d="" fill="#0000FF" transform="translate(0,0)"/>
<path d="" fill="#0000FF" transform="translate(0,0)"/>
<path d="" fill="#0000FF" transform="translate(0,0)"/>
<path d="" fill="#0000FF" transform="translate(0,0)"/>
<path d="" fill="#0000FF" transform="translate(0,0)"/>
<path d="" fill="#0000FF" transform="translate(0,0)"/>
<path d="" fill="#0000FF" transform="translate(0,0)"/>
<path d="" fill="#0000FF" transform="translate(0,0)"/>
<path d="" fill="#0000FF" transform="translate(0,0)"/>
<path d="" fill="#0000FF" transform="translate(0,0)"/>
<path d="" fill="#0000FF" transform="translate(0,0)"/>
<path d="" fill="#0000FF" transform="translate(0,0)"/>
<path d="" fill="#0000FF" transform="translate(0,0)"/>
<path d="" fill="#0000FF" transform="translate(0,0)"/>
<path d="" fill="#0000FF" transform="translate(0,0)"/>
<path d="" fill="#0000FF" transform="translate(0,0)"/>
<path d="" fill="#0000FF" transform="translate(0,0)"/>
<path d="" fill="#0000FF" transform="translate(0,0)"/>
<path d="" fill="#0000FF" transform="translate(0,0)"/>
<path d="" fill="#0000FF" transform="translate(0,0)"/>
<path d="" fill="#0000FF" transform="translate(0,0)"/>
<path d="" fill="#0000FF" transform="translate(0,0)"/>
<path d="" fill="#0000FF" transform="translate(0,0)"/>
<path d="" fill="#0000FF" transform="translate(0,0)"/>
<path d="" fill="#0000FF" transform="translate(0,0)"/>
<path d="" fill="#0000FF" transform="translate(0,0)"/>
<path d="" fill="#0000FF" transform="translate(0,0)"/>
<path d="" fill="#0000FF" transform="translate(0,0)"/>
<path d="" fill="#0000FF" transform="translate(0,0)"/>
<path d="" fill="#0000FF" transform="translate(0,0)"/>
<path d="" fill="#0000FF" transform="translate(0,0)"/>
<path d="" fill="#0000FF" transform="translate(0,0)"/>
<path d="" fill="#0000FF" transform="translate(0,0)"/>
<path d="" fill="#0000FF" transform="translate(0,0)"/>
<path d="" fill="#0000FF" transform="translate(0,0)"/>
<path d="" fill="#0000FF" transform="translate(0,0)"/>
<path d="" fill="#0000FF" transform="translate(0,0)"/>
<path d="" fill="#0000FF" transform="translate(0,0)"/>
<path d="" fill="#0000FF" transform="translate(0,0)"/>
<path d="" fill="#0000FF" transform="translate(0,0)"/>
<path d="" fill="#0000FF" transform="translate(0,0)"/>
<path d="" fill="#0000FF" transform="translate(0,0)"/>
<path d="" fill="#0000FF" transform="translate(0,0)"/>
<path d="" fill="#0000FF" transform="translate(0,0)"/>
<path d="" fill="#0000FF" transform="translate(0,0)"/>
<path d="" fill="#0000FF" transform="translate(0,0)"/>
<path d="" fill="#0000FF" transform="translate(0,0)"/>
<path d="" fill="#0000FF" transform="translate(0,0)"/>
<path d="" fill="#0000FF" transform="translate(0,0)"/>
<path d="" fill="#0000FF" transform="translate(0,0)"/>
<path d="" fill="#0000FF" transform="translate(0,0)"/>
<path d="" fill="#0000FF" transform="translate(0,0)"/>
<path d="" fill="#0000FF" transform="translate(0,0)"/>
<path d="" fill="#0000FF" transform="translate(0,0)"/>
</svg>
