<svg xmlns="http://www.w3.org/2000/svg" width="67pt" height="60" version="1.0" viewBox="0 0 67 45"><path d="M29.8 2.7 17 3.1v2.7c0 1.6.5 3.3 1.2 4 .9.9.5 1.2-1.9 1.2-3.5 0-8.7 3.2-11.7 7.3-3.2 4.3-2.8 12.4.8 17.2 4.5 5.9 7.3 6.6 25.9 6.3l16.2-.3v-3.3c0-1.8.5-3.2 1.2-3.2.8 0 1.3-2.2 1.5-6.3l.3-6.2 6.3-.3 6.2-.3v-6.8l-6.2-.3-6.3-.3-.3-6.3-.3-6.2-3.7.2c-2 .1-9.4.4-16.4.5zM42 6c0 1.9-.7 2-11.5 2S19 7.9 19 6s.7-2 11.5-2S42 4.1 42 6zm0 5.5c0 2.1-15.4 2.1-19 0-2.3-1.3-1.6-1.4 8.3-1.5 8.9 0 10.7.3 10.7 1.5zm-16.7 3.2c3.7 1.9 7.1 9.3 6.4 13.8C30.6 35.4 25 40 17.8 40 5 40-.8 24.4 8.8 15.7c4.1-3.8 10.4-4.1 16.5-1zM42 23c0 .5-2 1-4.5 1s-4.5-.5-4.5-1c0-.6 2-1 4.5-1s4.5.4 4.5 1zm0 5c0 1.7-.7 2-3.8 2-4.3 0-5.3-.6-4.5-2.6.3-.9 2-1.4 4.4-1.4 3.2 0 3.9.3 3.9 2zm0 5c0 1.8-.7 2-5.5 2-5.3 0-5.5-.1-4.5-2 .8-1.5 2.1-2 5.5-2 3.8 0 4.5.3 4.5 2zm4 5.5c0 1.2-1.7 1.5-9.6 1.5-8.5 0-9.5-.2-8.4-1.5 1.8-2.2 18-2.2 18 0z"/><path d="M11.9 16.5C9.1 18 6 23.4 6 26.8c0 2.6 4 8.4 7 10 3.4 1.8 9.7.8 12.6-1.9 9.9-9.3-1.8-24.9-13.7-18.4zm12 2.4C31.4 24.2 27.3 36 18 36c-8.7 0-13-9.3-7.5-15.9 3.7-4.4 8.4-4.8 13.4-1.2z"/><path d="M16.2 21.2c-1.5 1.5-1.6 3.2-.2 2.3.6-.4 1 1 1 3.4 0 2.3.5 4.1 1 4.1 1.2 0 1.4-9.7.2-10.4-.5-.3-1.4 0-2 .6z"/></svg>